<?xml version="1.0" encoding="UTF-8"?>
<svg width="128" height="128" version="1.1" viewBox="0 0 33.867 33.867" xmlns="http://www.w3.org/2000/svg">
 <path d="m13.494 6.6146-0.52917-5.0271h-0.26458c0 2.751-0.32918 5.1505-1.5305 7.6729-0.75185 1.5786-2.47 2.9422-2.1736 4.7625h0.52917c0.43049-0.82746 3.8582-3.6912 3.5004-1.0689-0.18047 1.3228-1.5964 0.86937-1.6483-0.25397-1.4854 0.83808 0.22115 1.9473-0.70331 2.7165-1.7144 1.4265-3.8169-4.0753-4.0592-5.0977h-0.26458c0.025355 3.0629 1.6993 4.7633 2.8745 7.4083 0.48342 1.088 0.24248 2.3391 0.73781 3.4396 0.53844 1.1963 1.6512 2.1655 2.4731 3.175l3.175-0.79375v-0.79375h1.0583l0.79375-0.79375 1.0583-3.9688 1.0583 1.8521-0.79375-0.26458-0.52917 2.6458-1.0583 1.3229h-1.0583v1.0583l-1.3229-0.26458c-0.48236 0.68464-0.82332 0.54323-1.5875 0.26458v1.0583l-3.4396-2.9104c1.2489 2.026 1.4744 4.3239 2.5672 6.2661 0.37961 0.67466 1.2734 0.68117 1.7917 1.2261 0.89132 0.93731 0.3286 2.002 0.13903 3.0911 2.2717-1.2892 1.3755-4.4615 3.2132-5.9492 1.1511-0.9319 3.9419 0.08306 2.7012 1.6269-0.85944 1.0694-1.6759-0.20244-1.9456-0.96932h-0.26458c-0.36301 2.7651 2.2243 2.3812 4.2333 2.3812l1.8521-8.9958c-2.7372 0.30503-1.9772 3.3359-4.2333 3.7042 2.3699-5.0166 5.274-8.0072 5.0271-13.758h-0.26458l-2.1167 7.4083h-0.26458l-1.3229-3.175 1.8521 1.0583c0.43879-2.0839-2.3108-3.2345-3.9687-3.9688l0.52917-1.8521 2.3812 2.3812c-0.55865-1.5351-2.1714-3.3356-2.0285-5.0269 0.11052-1.3082 1.9149-2.7355 2.6828-1.0657 0.36568 0.79516-0.10518 1.6488-0.38973 2.3884 2.5786-1.289 1.1518-3.8396-1.0583-4.4979l1.3229-3.7042-2.9104-0.52917-1.0583 1.8521 1.8521 0.26458c-1.9245 2.1854-3.0142-0.55156-2.3812-2.3812-2.2 0.17546-2.2622 4.6389-4.2333 6.0854m3.175-2.6458 2.3812 1.3229-0.26458 2.3812c-1.2983-0.78542-1.7798-1.5818-3.4396-1.3229l1.3229-2.3812m-2.3812 9.7896c-0.01417-1.5658-0.26658-2.6226-1.8521-3.175l1.3229-1.5875c0.70624 1.3453 2.1647 2.5214 3.175 0.79375-2.3552-0.32662-1.9384-2.46-0.05002-1.6912 3.5158 1.4314-0.67749 5.2814-2.5958 5.66m-7.4083 1.5875c0 2.7711-0.1785 6.4989 2.1167 8.4667-0.90827-2.5043-0.21996-6.7577-2.1167-8.4667m10.319 1.3229c0.04423 2.4891-0.44464 3.6798-3.175 3.175 0.20835-1.8706 1.4229-2.7538 3.175-3.175m7.6729 1.0583c-0.76364 2.1654 1.0026 3.058 1.5875 5.0271h0.26458c-0.14087-1.7701-0.56342-3.741-1.8521-5.0271m-12.7 1.5875c-0.43204 2.688-1.7539 1.3323-2.1167-0.52917l2.1167 0.52917m1.0583 0.52917 1.5875 1.8521-0.26458 0.26458h-1.8521l0.52917-2.1167m13.494 3.7042v0.79375h0.26458z" fill="#a0252e"/>
</svg>
