<svg xmlns="http://www.w3.org/2000/svg" width="100" height="100" viewBox="0 0 100 100"><rect width="100" height="100" fill="#fff" ry="0"/><path fill="#900" d="M37.693 99.003c-2.202-.824-4.316-2.21-4.316-2.21-6.384-4.32-7.02-17.848-10.12-22.358-1.383-2.014-3.41-4.377-5.187-5.252-2.574-1.266-2.787-1.594-1.048-1.614 2.954-.033 6.266 2.29 14.24 9.981l6.73 6.494v-7.038l2.837 2.214c3.822 2.983 4.7 2.795 4.7-1.005v-3.22l3.706 1.536c3.663 1.519 3.862 1.525 4.191-1.3.137-1.172.357-3.089.357-3.089s.09.043 2.937-.107c2.862-.15 2.875-.304 2.875-.304s.076-1.8.088-3.177c.013-1.484.28-2.852.28-2.852s1.255-.087 2.27-.152c.925-.06 2.217-.176 2.217-.176s.034.043.463-4.807c.173-1.968.23-4.814.23-4.814s.949-.407 1.385-.643c.86-.464 1.615-1.94 1.615-3.672 0-2.243.42-2.898 1.574-2.458.866.33 1.88 1.553 2.252 2.718.373 1.165.878 1.92 1.123 1.677.71-.704-3.803-12.415-5.413-14.125-2.065-2.192-3.899-.101-4.198 4.786-.13 2.127-.611 4.644-1.452 5.073-1.345.688-1.358.675-1.358.675s.065 1.005.142 4.476c.093 4.151-.54 4.141-.54 4.141s-1.354.273-2.152.473c-2.381.598-2.403.6-2.403.6s.01.018-.29 2.695c-.245 2.19-.371 2.176-.398 2.19 0 0 .033-.154-2.832-.207-2.681-.05-2.68-.045-2.68-.045s-.016-.025-.55 2.134c-.528 2.134-.39 2.24-.479 2.165 0 0-.032.01-3.014-.43-1.976-.29-3.617-.993-3.769-.993-.152 0-.562 2.087-.562 2.087-.472 1.969-.383 2.049-.383 2.049-.038.03-.127.494-3.433-.878-1.795-.746-2.139-.9-2.139-.9l-.868 1.617-.953.616-.979.699s-2.38-3.54-6.105-7.107c-4.013-3.845-7.352-7.802-7.758-8.459-.406-.656-2.044-5.567-2.989-11.08-.755-4.41-2.29-7.084-3.669-9.488-1.83-3.196-4.135-6.81-4.809-8.193-1.746-4.116-2.704-6.99-2.89-7.703-.097-.378-1.678-5.264-2.17-13.404C1.985 2.796 2.84.165 3.16.003c0 0 1.328 2.944 2.199 5.05 1.59 3.84 2.969 6.969 4.468 9.378 2.165 3.478 5.302 7.795 7.397 8.563 3.032.562 4.843-.151 6.851-1.445 5.145-4.714 4.26-5.515 9.822-9.77 6.145-4.547 7.916-5.33 15.953-4.437 1.716.19 6.016 1.472 8.182 1.613 2.307.151 3.276-.175 5.476-1.551 2.955-1.912 3.68-2.453 6.448-5.875.065-.08.558-.603 1.405-1.525.084-.092 1.53 1.338 1.928 2.178.533 1.124.691 2.313.705 4.247-.14 4.715-.467 5.55-.146 8.501.602 5.541 5.278 5.379 9.825 5.367 5.114.59 6.083 4.809 5.255 5.442-.357.273-2.304-.23-5.268-.092-2.07.464-3.798 3.144-3.068 4.642 1.858 3.814 2.995 5.887 3.6 7.958.897 3.08 1.66 6.31 1.496 8.452-.275 3.585-1.26 9.372-7.888 19.951-3.092 5.16-2.754 6.459-1.417 7.2 3.672 2.04 4.554.33 5.912-4.291 2.08-7.082 3.899-10.301 9.343-12.81 2.609-1.202 6.072-.84 6.343-.571.27.268-2.307 5.461-2.657 6.075-2.762 5.284-9.666 18.769-10.86 32.175l-.064 5.571-9.003-.017s-2.253-13.495-9.762-12.749c-7.05.7-5.808 4.385-12.49 9.704-2.321 1.743-3.222 2.116-5.382 2.583-2.147.377-3.213.47-5.486.48-1.326-.08-2.715-.397-4.583-.998zm-.961-41.675c.761-.756 2.029-.764 3.984-.026 2.1.791 2.868.744 2.868-.177 0-1.4-6.55-8.53-8.044-8.61-1.795-.096-2.768 4.568-2.096 7.228.738 2.918 1.55 3.31 3.288 1.585zm-7.52-7.44c1.224-3.685 1.185-3.764-2.693-5.529-2.163-.985-4.816-1.675-5.856-1.87-2.826-.529-2.533-.08-.579 2.325.956 1.177 1.21 2.854 1.048 3.403-.162.55-.006 2.143.347 3.54.51 2.016 1.246 2.471 3.567 2.206 2.26-.259 3.205-1.183 4.166-4.074zm26.536-5.252c2.926-2.818 2.972-3.039 1.66-7.904-.757-2.811-.647-6.226-1.623-6.034-4.528.892-13.993 7.47-14.917 12.855-.486 2.831-.469 3.165 4.007 4.202 2.098.486 4.579.912 5.522.673.996-.251 2.453-1.338 3.84-2.452.488-.39.988-.837 1.51-1.34z"/></svg>