<?xml version="1.0" encoding="UTF-8"?>
<svg width="128" height="128" version="1.1" viewBox="0 0 33.867 33.867" xmlns="http://www.w3.org/2000/svg">
 <path d="m21.15 0.06094c-1.8454 1.3081-4.7422 2.3329-6.8679 2.1206-1.4294-0.00847-3.4029 0.12682-4.0987-1.4402-0.26233-1.7147-2.1027 1.1448-1.256 2.0516 1.0248 1.5483-0.25046 3.3871-2.0139 2.5358-1.2625-1.263-2.7117-3.888-3.9495-5.3287-0.97002-0.0053666-1.0517-0.013973-2.4348 0 0.3596 2.6411 1.1702 5.3057 1.8276 7.8758 0.99143 3.1657 1.0422 3.4523 1.8131 5.2152 2.272 3.8421 2.0911 3.8042 3.7528 5.7253 1.1608 1.6689 2.9435 2.9677 4.2169 4.5434 2.0982-0.53054 4.1965-1.0606 6.2948-1.5911 0.11827-0.47517-0.24303-1.435 0.19022-1.5916 0.64745-0.04989 1.3761 0.09694 1.9763-0.06821 0.49019-0.58631 1.2073-1.0399 1.5548-1.7095 0.68327-2.5902 1.3671-5.181 2.0504-7.7712 0.69942 1.2378 1.3986 3.0847 2.098 4.3225-0.50382-0.09825-1.2098 1.2232-1.5929 1.3354-0.37744 1.7553-0.6441 2.9544-1.0898 4.6775l-2.0388 2.5776h-2.0979v2.1208c-0.87438-0.17648-1.7486-0.35321-2.623-0.52969-0.54224 1.5191-2.4808 0.66931-3.1482 0.72244v1.9296c-2.2733-1.945-4.5463-4.4983-6.8194-6.4433 2.9152 10.81 3.5856 10.636 5.2236 11.899 1.6968 0.84315 2.0328 0.66643 3.7136 0.68779 2.6592-0.5242 2.766-0.70618 6.4844-2.7455 2.7353-2.1053 2.9314-2.2265 5.4222-4.7573 2.6927-3.6866 4.2174-5.5746 4.692-12.624-0.36066-3.3624-0.56617-4.5057-1.2944-6.6909-1.057-2.6991-1.5834-3.5846-2.3891-4.8669-0.64222-1.0705-0.8759-1.5903-1.2362-2.2426-3.0738-0.024252-3.1225-0.033579-6.3604 0zm0.43249 7.9141c-0.02268 2.0515 0.12073 4.5933-1.6714 5.9697-1.2308 0.75487-3.8255 0.98845-4.5793 0.05064 0.26671-2.7483 2.4454-4.921 4.9998-5.6576 0.41103-0.14062 0.82912-0.26019 1.2509-0.36277zm-14.165 4.2442c1.3989 0.35362 2.7975 0.7073 4.1964 1.0609-0.06636 1.3279-1.0251 4.0799-2.6245 2.5094-0.87932-0.98329-1.3059-2.2959-1.5719-3.5704zm6.2953 2.1219c1.0492 1.2378 2.099 2.4757 3.1482 3.7135-0.34695 0.60989-0.96165 0.56658-1.5733 0.52969h-2.6245c0.34992-1.4145 0.69978-2.8287 1.0497-4.2432z" fill="#a0252e" stroke-width="1.272"/>
</svg>
