<?xml version="1.0" encoding="UTF-8"?>
<svg width="100" height="100" version="1.1" viewBox="0 0 100 100" xmlns="http://www.w3.org/2000/svg">
 <rect width="100" height="100" ry="0" fill="#fff"/>
 <path d="m37.693 99.003c-2.2017-0.824-4.3161-2.2109-4.3161-2.2109-6.3835-4.3184-7.0195-17.847-10.119-22.357-1.384-2.0141-3.4115-4.3774-5.1882-5.2518-2.5738-1.2666-2.7867-1.5947-1.0472-1.6141 2.9531-0.03285 6.2653 2.289 14.239 9.9812l6.7303 6.4931v-7.038l2.8373 2.2143c3.8222 2.983 4.7005 2.7952 4.7005-1.0052v-3.2195l3.7052 1.536c3.6634 1.5186 3.8622 1.5247 4.1913-1.3002 0.13647-1.1715 0.35676-3.0889 0.35676-3.0889s0.08955 0.04296 2.9374-0.10657c2.8615-0.15028 2.8751-0.30491 2.8751-0.30491s0.07549-1.8004 0.08772-3.1766c0.01335-1.4842 0.28002-2.8521 0.28002-2.8521s1.2545-0.08701 2.2693-0.15192c0.92513-0.05911 2.2175-0.17584 2.2175-0.17584s0.03432 0.04318 0.46266-4.8072c0.17375-1.9678 0.22992-4.8139 0.22992-4.8139s0.94929-0.40726 1.3853-0.6425c0.86111-0.46452 1.6152-1.9403 1.6152-3.6724 0-2.2434 0.41917-2.8978 1.5742-2.4581 0.86584 0.32966 1.8792 1.5528 2.252 2.718 0.37274 1.1652 0.87793 1.92 1.1227 1.6771 0.70934-0.70381-3.803-12.415-5.4133-14.125-2.0644-2.1921-3.8982-0.10123-4.1972 4.7855-0.13015 2.1271-0.61182 4.644-1.4525 5.0738-1.3451 0.6875-1.3575 0.67509-1.3575 0.67509s0.06423 1.0046 0.14168 4.4755c0.09261 4.1511-0.53991 4.1415-0.53991 4.1415s-1.3537 0.27251-2.1522 0.47292c-2.3812 0.59763-2.4034 0.59916-2.4034 0.59916s0.0114 0.01857-0.2887 2.6952c-0.24536 2.1912-0.37212 2.1758-0.39909 2.1912 0 0 0.03328-0.15508-2.8314-0.20832-2.6818-0.04999-2.6802-0.04427-2.6802-0.04427s-0.01599-0.02559-0.55032 2.1333c-0.52831 2.1347-0.3898 2.2406-0.47873 2.1649 0 0-0.03237 0.0099-3.0138-0.42871-1.9768-0.29043-3.617-0.99384-3.769-0.99384-0.15195 0-0.56236 2.0868-0.56236 2.0868-0.47228 1.9689-0.38338 2.049-0.38338 2.049-0.03711 0.0301-0.12616 0.49465-3.433-0.87823-1.7949-0.7452-2.1381-0.89969-2.1381-0.89969l-0.86799 1.6172-0.9539 0.6163-0.97835 0.69848s-2.3811-3.5401-6.1049-7.107c-4.0138-3.8447-7.3526-7.8017-7.7583-8.4585-0.40569-0.65675-2.0441-5.5676-2.9887-11.081-0.75519-4.4084-2.291-7.0829-3.6689-9.4875-1.8312-3.1956-4.1352-6.8105-4.8094-8.1929-1.7459-4.1161-2.7045-6.9902-2.8891-7.7032-0.097881-0.37814-1.6787-5.2633-2.1702-13.404-0.015479-4.0424 0.84076-6.6737 1.1585-6.8353 0 0 1.3283 2.9431 2.1993 5.0501 1.5898 3.8404 2.9695 6.9683 4.4685 9.377 2.1651 3.4789 5.302 7.7952 7.397 8.5636 3.0324 0.56167 4.8426-0.15133 6.851-1.4456 5.1446-4.714 4.2595-5.5145 9.8221-9.7696 6.145-4.5471 7.9159-5.3299 15.953-4.4371 1.7157 0.19057 6.0159 1.4722 8.1815 1.6136 2.3078 0.15064 3.2766-0.17593 5.4759-1.5517 2.9556-1.9117 3.6796-2.4523 6.4481-5.8745 0.06518-0.080568 0.55848-0.60301 1.4057-1.5257 0.0836-0.091124 1.5299 1.3386 1.9279 2.1788 0.53234 1.1236 0.69099 2.313 0.70477 4.247-0.14008 4.7142-0.4667 5.55-0.14617 8.5011 0.6018 5.5406 5.2779 5.3786 9.8254 5.3666 5.1135 0.59067 6.0832 4.809 5.2549 5.4421-0.3576 0.27335-2.3041-0.22995-5.2685-0.09255-2.0694 0.46419-3.7975 3.1442-3.0678 4.6423 1.8579 3.814 2.9955 5.8875 3.5993 7.9579 0.89808 3.0795 1.6608 6.3106 1.4967 8.4522-0.27472 3.5846-1.2599 9.3721-7.8882 19.951-3.0913 5.1595-2.7535 6.4586-1.4169 7.2007 3.6726 2.0392 4.5546 0.32992 5.9122-4.2917 2.0803-7.0817 3.8988-10.301 9.3433-12.81 2.6085-1.2018 6.0716-0.83999 6.3425-0.57126 0.27087 0.26872-2.3065 5.4617-2.6571 6.0749-2.7616 5.2842-9.6654 18.769-10.86 32.175l-0.063367 5.5717-9.0035-0.017173s-2.2524-13.495-9.7616-12.749c-7.0504 0.7006-5.8083 4.3847-12.49 9.7043-2.3213 1.7427-3.2226 2.1157-5.3823 2.5823-2.1471 0.3771-3.2126 0.46933-5.4863 0.47956-1.3258-0.07873-2.7147-0.3964-4.5829-0.99723zm-0.96118-41.675c0.76157-0.75562 2.0291-0.76404 3.9843-0.02636 2.0993 0.79182 2.8675 0.74453 2.8675-0.17657 0-1.4005-6.5487-8.5305-8.0433-8.6104-1.7957-0.09609-2.7688 4.5688-2.096 7.2286 0.73816 2.9181 1.5495 3.3092 3.2875 1.5849zm-7.5203-7.4391c1.2245-3.686 1.1859-3.765-2.6921-5.5299-2.1639-0.98475-4.8168-1.675-5.8566-1.8697-2.8258-0.5293-2.5328-0.08007-0.57885 2.3246 0.95637 1.177 1.2106 2.8537 1.0481 3.4034-0.1625 0.54967-0.0063 2.1427 0.34717 3.5397 0.51004 2.0161 1.2457 2.4711 3.5664 2.2057 2.2604-0.2586 3.2055-1.1828 4.166-4.0739zm26.536-5.2527c2.9263-2.818 2.9727-3.039 1.6612-7.9046-0.7577-2.8107-0.64779-6.2259-1.6242-6.0335-4.5272 0.89164-13.993 7.4704-14.917 12.855-0.48585 2.8313-0.46827 3.1647 4.0075 4.2018 2.0982 0.4862 4.579 0.91213 5.5224 0.67355 0.99561-0.25176 2.4529-1.3386 3.8401-2.4522 0.48711-0.39108 0.98706-0.83684 1.5097-1.3401z" fill="#900"/>
</svg>
