<?xml version="1.0" encoding="UTF-8"?>
<svg width="128" height="128" version="1.1" viewBox="0 0 33.867 33.867" xmlns="http://www.w3.org/2000/svg">
 <path d="m22.026 0c-1.9051 1.3081-4.8956 2.2721-7.0901 2.0598-1.4756-0.0084699-3.513 0.12682-4.2313-1.4402-0.27082-1.7147-2.1707 1.1448-1.2966 2.0516 1.058 1.5483-0.25856 3.3871-2.079 2.5358-1.3033-1.263-2.7994-3.7663-4.0773-5.207-1.0014-0.0053666-1.0857-0.013973-2.5136 0 0.37123 2.6411 1.2081 5.184 1.8867 7.7541 1.0235 3.1657 1.0759 3.4523 1.8717 5.2152 2.3455 3.8421 2.1587 3.8042 3.8742 5.7253 1.1984 1.6689 3.0387 2.9677 4.3533 4.5434 2.1661-0.53054 4.3322-1.0606 6.4984-1.5911 0.12209-0.47517-0.2509-1.435 0.19637-1.5916 0.66839-0.04989 1.4206 0.09694 2.0402-0.06821 0.50604-0.58631 1.2464-1.0399 1.6051-1.7095 0.70538-2.5902 1.4113-5.181 2.1167-7.7712 0.72205 1.2378 1.4437 2.4762 2.1658 3.714-0.52012-0.09825-1.2489-0.54943-1.6444-0.43719-0.38965 1.7553-0.66494 3.5629-1.125 5.286l-2.1048 2.5776h-2.1658v2.1208c-0.90267-0.17648-1.8052-0.35321-2.7079-0.52969-0.55978 1.5191-2.5611 0.66931-3.25 0.72244v1.9296c-2.3468-1.945-4.6932-3.8898-7.0399-5.8348 3.0095 10.81 3.7015 11.8 5.3925 13.063 1.1976 0.76215 3.0983 0.79837 3.8287 0.69764 2.0972-0.61255 2.5972-0.89549 5.5227-3.5828 2.2582-1.886 4.2759-4.0369 6.2591-6.1919 2.5063-2.9906 3.676-6.7839 4.8173-10.404-0.33068-1.9877-1.3968-3.7559-2.1069-5.6287-0.3226-0.75855-0.6448-1.5173-0.96739-2.2759-0.11973-1.1356-0.61191-3.0872-0.61599-3.1311-0.30953-0.96744-0.60758-1.9349-0.84699-2.6019-3.1519-0.073862-3.1766-0.087323-6.5661 0zm0.44649 7.8533c-0.02346 2.0515 0.12464 4.5933-1.7255 5.9697-1.2706 0.75487-3.9492 0.98845-4.7274 0.05064 0.27534-2.7483 2.5245-4.921 5.1615-5.6576 0.42432-0.14062 0.85594-0.26019 1.2914-0.36277zm-14.623 4.2442c1.4441 0.35362 2.888 0.7073 4.3321 1.0609-0.06848 1.3279-1.0583 4.0799-2.7094 2.5094-0.90776-0.98329-1.3481-2.2959-1.6227-3.5704zm6.4989 2.1219c1.0831 1.2378 2.1669 2.4757 3.25 3.7135-0.35818 0.60989-0.99276 0.56658-1.6242 0.52969h-2.7094c0.36124-1.4145 0.72242-2.8287 1.0837-4.2432z" fill="#a0252e" stroke-width="1.2924"/>
</svg>
