<?xml version="1.0" encoding="UTF-8"?>
<svg width="100" height="100" version="1.1" viewBox="0 0 100 100" xmlns="http://www.w3.org/2000/svg">
 <rect width="100" height="100" ry="0" fill="#fff"/>
 <path d="m41.934 98.99c-2.2474-0.83486-4.4057-2.24-4.4057-2.24-6.516-4.3753-7.1652-16.765-10.329-21.334-1.4127-2.0406-3.4823-4.4351-5.2959-5.321-2.6272-1.2833-2.8445-1.6157-1.0689-1.6354 3.0144-0.03328 6.3953 2.3192 14.535 10.113l6.87 6.5786v-7.1307l2.8962 2.2435c3.9016 3.0223 4.7981 2.832 4.7981-1.0184v-3.2619l3.7821 1.5562c3.7395 1.5386 3.9424 1.5448 4.2783-1.3173 0.1393-1.1869 0.36417-3.1296 0.36417-3.1296s0.0914 0.04353 2.9984-0.10797c2.9209-0.15226 2.9348-0.30893 2.9348-0.30893s0.07705-1.8241 0.08955-3.2185c0.01363-1.5038 0.28583-2.8897 0.28583-2.8897s1.2805-0.08816 2.3164-0.15392c0.94433-0.05989 2.2636-0.17816 2.2636-0.17816s0.03504 0.04375 0.47226-4.8705c0.17736-1.9937 0.23469-4.8773 0.23469-4.8773s0.96899-0.41263 1.414-0.65097c0.87898-0.47064 1.6488-1.9659 1.6488-3.7208 0-2.273 0.42787-2.936 1.6068-2.4905 0.88381 0.334 1.9182 1.5733 2.2988 2.7538 0.38047 1.1806 0.89615 1.9453 1.146 1.6992 0.72406-0.71308-3.882-12.579-5.5257-14.311-2.1072-2.221-3.9791-0.10256-4.2844 4.8486-0.13285 2.1551-0.62452 4.7052-1.4826 5.1406-1.373 0.69656-1.3856 0.68398-1.3856 0.68398s0.06556 1.0178 0.14462 4.5345c0.09453 4.2058-0.55112 4.1961-0.55112 4.1961s-1.3818 0.2761-2.1969 0.47915c-2.4306 0.6055-2.4533 0.60705-2.4533 0.60705s0.01164 0.01881-0.29469 2.7307c-0.25046 2.2201-0.37984 2.2045-0.40737 2.2201 0 0 0.03397-0.15712-2.8901-0.21106-2.7374-0.05065-2.7359-0.04485-2.7359-0.04485s-0.01632-0.02593-0.56175 2.1614c-0.53928 2.1628-0.39789 2.2701-0.48867 2.1934 0 0-0.03304 0.01003-3.0763-0.43436-2.0178-0.29426-3.6921-1.0069-3.8473-1.0069-0.15511 0-0.57403 2.1143-0.57403 2.1143-0.48208 1.9948-0.39133 2.076-0.39133 2.076-0.03788 0.0305-0.12878 0.50117-3.5042-0.8898-1.8321-0.75502-2.1825-0.91154-2.1825-0.91154l-0.886 1.6385-0.9737 0.62442-0.99868 0.70768s-2.4305-3.5867-6.2316-7.2006c-4.0972-3.8954-7.5053-7.9045-7.9193-8.5699-0.41411-0.6654-2.0866-5.641-3.0507-11.227-0.77087-4.4665-2.3385-7.1762-3.745-9.6125-1.8692-3.2377-4.2211-6.9002-4.9092-8.3008-1.7822-4.1703-2.7607-7.0823-2.9491-7.8047-0.099917-0.38312-1.7135-5.3326-2.2152-13.581-0.0158-4.0957 0.85822-6.7616 1.1825-6.9254 0 0 1.3559 2.9819 2.245 5.1166 1.6228 3.891 3.0311 7.0601 4.5612 9.5005 2.2101 3.5247 5.4121 7.8979 7.5505 8.6764 3.0953 0.56907 4.9431-0.15332 6.9932-1.4646 5.2514-4.7761 4.3479-5.5872 10.026-9.8983 6.2725-4.607 8.0802-5.4001 16.284-4.4956 1.7513 0.19308 6.1408 1.4916 8.3513 1.6349 2.3557 0.15262 3.3446-0.17825 5.5896-1.5721 3.0169-1.9369 3.756-2.4846 6.5819-5.9519 0.06654-0.08163 0.57007-0.61096 1.4349-1.5458 0.08533-0.092325 1.5616 1.3562 1.9679 2.2075 0.54339 1.1384 0.70533 2.3435 0.7194 4.303-0.14298 4.7763-0.47639 5.6231-0.1492 8.6131 0.61429 5.6136 5.3875 5.4495 10.029 5.4373 5.2196 0.59845 6.2094 4.8724 5.3639 5.5138-0.36502 0.27695-2.352-0.23298-5.3779-0.09377-2.1124 0.47031-3.8763 3.1856-3.1315 4.7035 1.8965 3.8643 3.0576 5.9651 3.674 8.0627 0.91672 3.1201 2.3612 6.57 2.4156 8.916-0.05848 0.67978 0.49548 11.099-5.6813 21.56-1.5591 2.6687-3.4582 5.9821-4.9606 7.5311-2.8106 3.7627-6.525 7.7288-9.6171 10.626-4.0769 3.9925-6.8507 5.4455-10.592 8.1475-2.7653 1.6335-6.5442 3.5094-8.7487 3.9822-2.1917 0.38207-3.2792 0.47551-5.6002 0.48588-1.3533-0.07976-2.7711-0.40162-4.678-1.0104zm-0.98113-40.907c0.77737-0.76558 2.0712-0.77411 4.067-0.02671 2.1429 0.80225 2.927 0.75434 2.927-0.1789 0-1.419-6.6846-8.6429-8.2102-8.7238-1.833-0.09736-2.8262 4.629-2.1395 7.3238 0.75348 2.9565 1.5816 3.3528 3.3557 1.6058zm-7.6764-7.5371c1.25-3.7346 1.2105-3.8146-2.748-5.6028-2.2088-0.99772-4.9167-1.6971-5.9781-1.8943-2.8845-0.53627-2.5853-0.08113-0.59086 2.3552 0.97622 1.1925 1.2357 2.8913 1.0699 3.4482-0.16588 0.55691-0.0065 2.1709 0.35438 3.5863 0.52063 2.0427 1.2715 2.5037 3.6404 2.2348 2.3073-0.26201 3.272-1.1984 4.2525-4.1276zm27.087-5.3219c2.987-2.8551 3.0344-3.079 1.6956-8.0087-0.77343-2.8477-0.66124-6.3079-1.6579-6.113-4.6212 0.90339-14.283 7.5688-15.227 13.024-0.49594 2.8686-0.47799 3.2064 4.0906 4.2572 2.1417 0.49261 4.6741 0.92415 5.637 0.68242 1.0163-0.25508 2.5038-1.3562 3.9198-2.4845 0.49722-0.39623 1.0076-0.84787 1.5411-1.3578z" fill="#900"/>
</svg>
