<?xml version="1.0" encoding="UTF-8"?>
<svg width="128" height="128" version="1.1" viewBox="0 0 33.867 33.867" xmlns="http://www.w3.org/2000/svg">
 <path d="m20.89-0.053743c-9.37e-4 0.001881 6.9e-5 0.0026131-0.0021 0.0046509-0.0015 0.011599-0.0013 0.0056945 0.0021-0.0046509zm-1.4661 0.19172c-0.94606 2.3094-4.0892 4.6833-5.918 5.0441-3.8e-5 -0.00423 4e-5 -0.00765 0-0.011885-0.06196 0.00909-0.12446 0.014107-0.18707 0.016536-0.06767 0.00219-0.1359 0.00243-0.2036 0.00258-0.05717-0.00329-0.11275 0.00382-0.1695 0.0093-0.07682 0.00768-0.15438 0.011241-0.23151 0.013436-0.07386 0.00172-0.14781 0.00175-0.22169 0.00207-0.06536 2.916e-4 -0.13049 4.525e-4 -0.19585 5.168e-4 -0.06505 4.86e-5 -0.13029-9.4e-6 -0.19534 0-0.05607 7.8e-6 -0.1119 0-0.16795 0-0.07861 6.27e-4 -0.15711 2.366e-4 -0.23564-0.0031-0.0016-1.317e-4 -0.0036 1.301e-4 -0.0052 0-0.02235 0.00109-0.0443 0.00232-0.06666 0.0031h-0.33538c-0.0376 9.56e-5 -0.07505-5.02e-5 -0.11266 0-0.06841 7.84e-5 -0.13726-2.2e-5 -0.20567 0-0.01129 0-0.01742-3.45e-5 -0.02791 0-0.04528 1.57e-5 -0.08959-1.1e-5 -0.13488 0-1.7e-5 -5.753e-4 1.6e-5 -5.131e-4 0-0.00103-0.0801-0.00345-0.11098-0.019148-0.11472-0.071313-0.74094 0.22153-1.6978-0.47371-1.7508-1.6195-2.3282 1.3136 0.34676 3.053-1.1023 4.2587-2.519 2.0959-5.53-5.2573-6.2141-7.5153-0.030621-0.023042-0.061581-0.047233-0.092501-0.074931-0.051301-0.045943-0.041292-0.037715-0.03359-0.031006-0.06372 0.013167-0.12769 0.025603-0.19069 0.041858-0.055445 0.015361-0.10984 0.033306-0.16433 0.051676-0.019337 0.006897-0.038947 0.013476-0.058394 0.020154 0.20745 4.4955 2.7032 7.1276 4.4814 11.13 0.75772 1.7054 0.38011 3.6659 1.1565 5.3909 0.84396 1.875 2.5884 3.3952 3.8768 4.9775l4.9764-1.2444v-1.2444h1.6593l1.2439-1.2444 1.6593-6.2208 1.6588 2.9032-1.2444-0.41496-0.82941 4.1476-1.6588 2.0738h-1.6588v1.6583l-2.0738-0.41393c-0.75609 1.0731-1.2904 0.8507-2.4882 0.41393v1.6593l-5.3914-4.562c1.9576 3.1756 2.3111 6.7783 4.024 9.8227 0.59503 1.0575 1.9958 1.0666 2.8081 1.9208 0.48049 0.50527 0.67676 1.0359 0.73122 1.5823 0.0017 0.0053 4e-3 0.01066 0.0057 0.01602 0.0091 0.03058 0.0182 0.06128 0.02687 0.09198 0.01003 0.03224 0.01332 0.06572 0.02222 0.09818 0.0061 0.02817 0.01222 0.05624 0.01912 0.08423 0.0091 0.04276 0.01489 0.08685 0.02015 0.13022 0.0034 0.04317 0.0096 0.08565 0.01447 0.12868 0.0022 0.03118 0.0059 0.06214 0.01034 0.09302 0.0047 0.03875 0.01039 0.07741 0.01447 0.11627 0.0056 0.04154 0.01019 0.08275 0.01757 0.12402 0.0088 0.0527 0.01756 0.10552 0.02687 0.15813 0.0099 0.06052 0.02072 0.1207 0.03204 0.18087 0.0014 0.0049 0.0032 0.0096 0.0047 0.01447 0.13059-0.09055 0.26111-0.18081 0.39016-0.27337 0.15722-0.11566 0.31089-0.23593 0.45889-0.36328 0.10176-0.09153 0.1997-0.18616 0.29094-0.28836 0.06503-0.07276 0.13195-0.14393 0.19482-0.21859 0.06845-0.08319 0.1343-0.16858 0.20412-0.25063 0.08566-0.09781 0.17389-0.19312 0.26562-0.28525 0.59508-2.0343 0.83546-4.2663 2.5048-5.6177 1.8042-1.4607 6.1785 0.12978 4.2339 2.5497-1.3471 1.6763-2.6267-0.31773-3.0494-1.5198h-0.41502c-0.569 4.3341 3.4863 3.7326 6.6353 3.7326l2.9032-14.101c-4.2903 0.47813-3.099 5.2291-6.6353 5.8064 3.7146-7.8631 8.2667-12.552 7.8796-21.566h-0.41444l-3.3181 11.613h-0.41496l-2.0733-4.977 2.9032 1.6588c0.68774-3.2664-3.6226-5.07-6.2213-6.2208l0.77721-2.7197c-0.03685-0.028732-0.06966-0.061128-0.0956-0.099736-0.05543-0.082466-0.07778-0.16172-0.08062-0.23823-0.0019-0.001288-0.0033-0.00288-0.0052-0.004134-0.04154-0.024704-0.08414-0.048808-0.12868-0.067696-0.07712-0.029437-0.15487-0.056801-0.23254-0.084749-0.0885-0.029908-0.18046-0.051405-0.2713-0.072864-0.10556-0.023888-0.21202-0.038463-0.31936-0.05116-0.12225-0.016506-0.2455-0.025218-0.36845-0.034623-0.1357-0.011286-0.27171-0.012559-0.40773-0.012402zm-17.836 0.0067179c-0.00404 7.0537e-4 -0.0083 0.00147-0.012402 0.002067l0.012919-5.1671e-4c-1.287e-4 -4.4046e-4 -3.883e-4 -7.1482e-4 -5.168e-4 -0.0015503zm19.083 0.00155c0.02845 0.00721 0.05708 0.014414 0.08527 0.022738-0.0066-0.002665-0.01332-0.00529-0.02015-0.008268-0.02143-0.005329-0.04347-0.009767-0.06511-0.014469zm-18.778 7.5246c0 4.3436-0.27989 10.187 3.3176 13.271-1.4237-3.9253-0.34467-10.592-3.3176-13.271zm16.175 2.0733c0.06933 3.9016-0.6973 5.7681-4.977 4.977 0.32654-2.932 2.2306-4.3167 4.977-4.977zm12.027 1.6593c-1.1969 3.3942 1.5715 4.7932 2.4882 7.8796h0.41496c-0.2208-2.7746-0.88327-5.8638-2.9032-7.8796zm-23.225 1.6588 3.3176 0.82941c-0.67717 4.2132-2.7491 2.0884-3.3176-0.82941zm4.977 1.6588 2.4882 2.9032-0.41496 0.41444h-2.9032z" fill="#a0252e"/>
</svg>
