<?xml version="1.0" encoding="UTF-8"?>
<svg width="212" height="132" version="1.1" viewBox="0 0 212 132" xmlns="http://www.w3.org/2000/svg" xmlns:xlink="http://www.w3.org/1999/xlink">
 <defs>
  <linearGradient id="b" x1="830.98" x2="830.91" y1="437.4" y2="345.08" gradientUnits="userSpaceOnUse">
   <stop stop-color="#e5e2d6" offset="0"/>
   <stop stop-opacity="0" offset="1"/>
  </linearGradient>
  <linearGradient id="a" x1="882.76" x2="882.5" y1="554.84" y2="506.79" gradientUnits="userSpaceOnUse">
   <stop stop-color="#e5e3d4" offset="0"/>
   <stop stop-opacity="0" offset="1"/>
  </linearGradient>
  <filter id="f" x="-.0013434" y="-.0033641" width="1.0027" height="1.0067" color-interpolation-filters="sRGB">
   <feGaussianBlur stdDeviation="0.41853188"/>
  </filter>
  <filter id="e" x="-.002707" y="-.011041" width="1.0054" height="1.0221" color-interpolation-filters="sRGB">
   <feGaussianBlur stdDeviation="0.65169867"/>
  </filter>
  <filter id="d" x="-.002694" y="-.010898" width="1.0054" height="1.0218" color-interpolation-filters="sRGB">
   <feGaussianBlur stdDeviation="0.83932287"/>
  </filter>
  <filter id="c" x="-.0043506" y="-.0022893" width="1.0087" height="1.0046" color-interpolation-filters="sRGB">
   <feGaussianBlur stdDeviation="0.54014775"/>
  </filter>
 </defs>
 <g transform="matrix(.22075 0 0 .22075 -50.941 -10.811)">
  <path d="m433.32 79.395c8.4304 25.909 18.336 53.534 17.988 81.135-0.14437 11.455-2.0188 22.989-4.2293 34.224-1.1691 5.9415-3.267 12.3-3.5303 18.342-3.9757-3.2365-6.7142-8.1008-10.582-11.582-9.0117-8.1108-22.505-12.239-34.215-7.8215-3.3018-14.402-6.6358-28.849-10.786-43.036-1.2266-4.1936-2.965-12.868-7.5649-14.466-2.3025 6.1482-1.7503 14.322-1.7607 20.81-0.016 9.966-0.35391 19.999-0.35391 29.994 0 32.025-1.0919 68.136-21.129 94.893-5.1043 6.8163-11.438 11.705-18.032 16.935 0-5.3935-0.21827-10.839 0.0177-16.227 0.96792-22.102 3.1023-53.12-17.651-67.739 2.2005 9.5985 5.1924 19.003 5.6272 28.933 0.95252 21.75-4.2344 42.588-10.803 63.147-6.1636 19.291-13.935 38.44-25.163 55.388-3.8665 5.8357-8.2737 11.758-13.405 16.546-2.9336 2.7371-7.6436 5.1322-10.016 8.2639-0.93576 1.2353-0.87338 4.4687-0.35392 5.8838 0.58478 1.593 2.207 2.8981 3.2295 4.2293 2.2949 2.9877 4.3983 8.1921 7.848 9.8742 9.578-13.372 15.333-31.038 32.808-36.259 14.531-4.341 31.514 12.499 20.571 26.022-4.3179 5.3359-12.884 8.4494-19.518 6.4589-4.1024-1.2308-9.5005-5.0641-7.4234-9.9804 2.295-5.4318 8.284-6.3646 12.714-9.1664-10.349-3.0589-27.652 4.6234-23.128 17.28 1.4179 3.9667 4.1673 7.4954 6.9633 10.591 1.1279 1.2488 3.806 2.9755 4.0435 4.7336 0.70877 5.2468-5.2415 13.419-9.7503 15.36-2.2471 0.96724-5.1687-1.2455-7.0518-2.3093-6.1554-3.4775-11.914-7.4807-16.935-12.493-15.384-15.359-24.455-35.3-29.932-56.095-1.623-6.1623-2.1134-12.538-3.5834-18.696h-0.35392c-11.513 29.844 5.6252 62.491 21.872 87.134 3.3725 5.1157 6.8004 10.206 10.387 15.174 2.3176 3.2098 5.1561 6.2385 6.7952 9.8742 1.4127 3.1337 2.0105 6.7089 2.4066 10.334 20.903-5.7742 106.11-46.05 116.92-36.418 108.32 27.612-42.851 148.5-78.649 175.67 1.218 6.1903 2.1071 12.442 2.9198 18.696 0.19818 1.5251-0.0734 5.6938 1.221 6.689 1.239 0.95261 4.972-0.41473 6.4412-0.5928 4.5491-0.55139 9.3095-0.84969 13.758 0.52202 3.6579 1.1278 6.5852 3.6574 8.1666 7.1402 1.3605 2.9968 1.2378 6.8816 4.8929 7.795 5.4804 1.3694 11.414 1.4109 16.926 0.23889 1.7243-0.36665 4.5398-0.77758 5.7423-2.1854 1.0768-1.2605 1.2166-3.5794 1.5307-5.1494 0.86379-4.3181 1.378-8.7005 2.0527-13.051 2.5245-16.278 8.2766-32.42 26.305-36.329 10.251-2.2226 20.807 0.11704 27.756 8.4586 7.4933 8.9954 6.8359 26.018-4.4682 31.817-2.6594 1.3641-5.9016 1.7124-8.8213 1.1148-2.6597-0.54437-5.8652-1.3039-8.1135-2.8756-8.2067-5.7366-6.1754-18.681-5.9988-27.234h-0.35391c-2.6477 5.0322-5.5203 9.984-6.9987 15.528-3.4349 12.882 3.3794 20.944 15.466 24.686 15.638 4.8406 33.22 3.8842 49.389 3.8842 1.4111-32.869 3.2269-67.463 13.068-99.131 3.8015-12.233 11.016-22.215 15.864-33.861-12.836 0-29.773 1.6537-37.232 13.758-5.6927 9.2385-4.2358 20.086-5.5122 30.339-0.63571 5.1074-3.1147 9.9063-8.7594 10.52-4.6971 0.51074-9.2678-1.3771-13.758-2.4066 16.665-24.724 30.423-51.566 45.513-77.26 5.4079-9.2079 10.618-18.545 15.82-27.871 4.7144-8.4506 9.4806-16.601 11.732-26.101 5.2428-22.121 2.3746-46.471-2.1589-68.447l-2.4686 0.35391c1.1274 6.0727 0.11907 12.604-0.32737 18.696-1.5795 21.548-10.245 43.549-18.156 63.501-2.5025 6.3121-4.8827 12.871-8.4055 18.704-1.3066 2.1636-2.859 5.0314-5.2202 6.1846-4.5398 2.2173-6.6804-6.4663-7.503-9.361-3.4842-12.262-13.306-21.328-13.307-34.931 2.306 1.2428 3.8568 4.1104 5.6626 5.9988 4.9666 5.194 11.547 13.076 18.678 15.174-0.6289-3.1766 2.6516-6.1053 4.1231-8.8213 2.7318-5.0422 4.9927-11.236 5.76-16.935-16.594-6.9088-33.638-16.393-48.336-26.712-3.6518-2.5637-7.199-5.3476-10.582-8.255-1.2153-1.0446-3.2241-2.2547-3.7603-3.84-0.58029-1.7156 0.91708-4.6704 1.398-6.3439 1.531-5.3284 2.5861-11.165 4.8309-16.236 6.5523 16.986 21.509 30.766 39.515 34.931-2.2349-5.8097-7.4073-11.352-10.821-16.581-8.5275-13.062-16.846-27.251-21.182-42.337-1.6754-5.8288-3.5282-12.597-2.7251-18.696 1.6037-12.179 7.842-20.439 19.554-24.845 2.986-1.1234 7.3732-2.9977 10.582-2.035 5.1558 1.5467 7.5421 8.1285 8.9186 12.767 3.7142 12.517 2.3599 29.821-9.6176 37.4 1.7352 3.2642 4.8838 2.5021 7.7596 1.1325 5.4668-2.6037 10.092-7.8707 12.944-13.13 6.5397-12.056 6.2554-27.916-2.8313-38.807-3.2982-3.953-8.1704-6.4798-12.582-8.9717-4.8061-2.7151-10.617-5.3788-16.227-5.4945 19.386-46.624 37.566-96.354 22.721-147.1-4.1954-14.343-11.787-28.52-22.376-39.161-3.7072-3.7251-7.7754-7.8144-12.697-9.8742zm-26.269 132.78c6.6658-0.23517 16.148 4.1217 19.456 8.6886 6.1387 8.4742-7.2406 13.136-13.298 14.643-1.4748 0.36686-4.7087 0.30702-5.7511 1.4864-1.0844 1.2268 0.80963 4.6176 1.5041 5.7334 5.9433 9.5499 16.62 1.4371 24.358-0.35391-2e-3 2.2886-0.24614 4.5188-0.96442 6.7067-5.0046 15.243-26.266 8.8041-35.02 1.3006-3.6109-3.0951-6.8822-7.171-8.025-11.883-1.9998-8.2452 2.2574-15.288 8.025-20.801 1.8863-1.8029 4.4933-4.383 7.0606-5.1229 0.81081-0.2337 1.7022-0.36455 2.6544-0.39815zm-24.526 47.133c0.20072 4.3923 2.9621 7.9786 5.99 10.936 8.2463 8.054 19.341 9.8831 30.339 9.8831-0.92897 11.753-4.7292 22.811-8.4674 33.861h-0.69898c-4.516-10.993-14.972-24.844-28.225-24.323-5.5484 0.21838-10.216 3.4568-15.519 4.5655 1.4916-8.6676 6.5999-17.048 10.662-24.694 1.732-3.2605 3.2815-7.6264 5.9192-10.228zm-3.4064 56.228c3.2608 0.13065 6.486 0.98398 9.3964 2.6455 11.031 6.297 13.794 20.496 13.422 32.144-0.57598 18.059-9.7248 36.201-26.473 44.363-7.4526 3.6318-15.758 5.0256-23.987 5.0256 0.2738-6.3758 1.5839-12.265 0.54856-18.696-2.2176-13.775-13.156-26.037-27.358-27.871 2.0151-9.7373 9.155-19.317 18.696-22.934-0.99934 12.662 3.9864 22.673 16.227 27.915 12.095 5.1797 29.189 1.1759 31.401-13.803-8.296-0.17122-17.206-2.2487-24.694-5.813-3.0844-1.468-6.8811-3.7389-7.8923-7.2376-1.3233-4.5782 2.0512-8.3329 5.4149-10.892 4.33-3.294 9.863-5.0664 15.298-4.8486zm-134.53 105.7c-0.37332 8.6947-1.7241 17.393-2.1058 26.11-1.0542 24.074 2.2929 50.782 11.883 73.021 4.8261 11.192 12.04 24.394 22.677 31.047-5.4134-16.002-16.061-29.815-18.244-46.92-1.7028-13.341-1.0412-28.328 0.70783-41.629 0.51383-3.9086 1.1907-7.8465 2.265-11.644 0.47981-1.6957 1.9267-4.2484 1.6192-5.9988-0.44284-2.5208-4.0199-5.1889-5.6538-7.0517-3.2756-3.7346-6.7805-7.3352-9.7946-11.29-1.3372-1.7544-1.9826-3.9959-3.3533-5.6449zm258.23 33.162-9.5292 27.517c17.743 9.4824 28.031 32.372 33.268 50.804 1.5347 5.401 2.4769 10.997 3.0083 16.581 0.24049 2.5269-0.84547 5.5342 2.5305 5.6449 0-36.49-9.468-69.449-28.57-100.55z" filter="url(#c)" opacity=".4" style="mix-blend-mode:normal"/>
  <path d="m429.96 73.082c8.4306 25.909 18.333 53.538 17.985 81.139-0.14437 11.455-2.0166 22.985-4.2271 34.219-1.1691 5.9416-3.2642 12.303-3.5275 18.344-3.9758-3.2365-6.7155-8.1004-10.583-11.582-9.0119-8.1108-22.51-12.239-34.219-7.8213-3.3018-14.402-6.6365-28.851-10.786-43.039-1.2266-4.1936-2.958-12.866-7.558-14.464-2.3025 6.1482-1.7535 14.325-1.7639 20.814-0.016 9.9661-0.35278 19.991-0.35278 29.986 0 32.025-1.0926 68.14-21.13 94.897-5.1045 6.8165-11.434 11.704-18.029 16.933 0-5.3935-0.22207-10.84 0.0139-16.228 0.96792-22.102 3.1012-53.114-17.653-67.733 2.2005 9.5986 5.1957 18.999 5.6306 28.928 0.95252 21.751-4.232 42.588-10.801 63.147-6.1637 19.291-13.941 38.438-25.17 55.386-3.8665 5.8358-8.2732 11.762-13.404 16.549-2.9336 2.7371-7.6454 5.1285-10.018 8.2603-0.93576 1.2353-0.87224 4.4673-0.35278 5.8824 0.58478 1.593 2.2094 2.9022 3.2319 4.2333 2.2949 2.9877 4.3942 8.1956 7.8441 9.8778 9.578-13.373 15.333-31.042 32.808-36.263 14.532-4.341 31.517 12.496 20.574 26.018-4.318 5.3361-12.881 8.4528-19.516 6.4621-4.1024-1.2308-9.5014-5.0596-7.4241-9.976 2.295-5.4318 8.2853-6.3704 12.716-9.1722-10.349-3.059-27.652 4.6295-23.128 17.286 1.4179 3.9668 4.1646 7.4878 6.9606 10.583 1.1279 1.2488 3.8077 2.9777 4.0452 4.7358 0.70877 5.2468-5.2406 13.423-9.7496 15.364-2.2471 0.96724-5.1725-1.2475-7.0556-2.3113-6.1555-3.4775-11.913-7.4843-16.933-12.497-15.384-15.359-24.455-35.296-29.932-56.092-1.623-6.1623-2.1121-12.539-3.5822-18.697h-0.35278c-11.513 29.844 5.6265 62.493 21.873 87.136 3.3726 5.1157 6.792 10.201 10.379 15.169 2.3176 3.2099 5.1563 6.242 6.7953 9.8778 2.6613 5.9034 2.4682 13.42 3.3811 19.756 1.8294 12.696 3.6644 26.224 7.6402 38.453 1.401 4.3092 7.8019 8.1294 10.961 11.289 6.8 6.8 13.313 13.936 19.655 21.167 2.7701 3.1582 5.9119 8.2482 9.6254 10.231l3.175-10.583c4.3383 3.3342 10.991 7.1529 16.581 7.4083l1.0583-13.053 20.108 5.2917-1.0583-14.111 17.639 3.175v-10.936l0.56564-4.0205 3.6677-0.56564h8.8194c0-5.5533-0.70555-11.029-0.70555-16.581 0-1.844-0.49965-4.5633 0.21286-6.2888 1.3082-3.1681 7.5532-3.9799 8.0804-7.4834 0.25665-1.7056-0.6595-3.898-0.82505-5.6306-0.42238-4.4204-0.17907-12.668 2.8603-16.196 3.7959-4.4065 8.1489-2.5835 10.944 1.732 4.3572 6.7268 7.2936 16.065 8.3605 23.989-3.7511-1.1016-3.1288-4.1421-4.9718-7.0556-1.9589-3.0965-4.9138-5.6038-8.081-7.4083v10.936l-0.56564 4.4712-9.2016 6.8827 0.21069 7.3433 0.38435 15.875-14.111 1.0583 1.0583 17.639-11.994-1.0445-4.3242 0.34873-0.67453 4.2235-0.64566 11.994-20.108-7.7611v15.522l-8.8194-0.31522-11.642-9.5626-1.0583 17.992c-13.223-13.26-24.536-28.699-40.569-38.913-3.9078-2.4894-8.3295-4.9068-13.053-5.1716-2.127-0.11928-4.2729-0.96966-4.5861 1.7514 9.7806 0.79883 17.665 8.8727 22.805 16.581 11.239 16.852 16.026 37.558 19.88 57.15 1.218 6.1904 2.1092 12.443 2.9218 18.697 0.19818 1.5251-0.0736 5.6926 1.2208 6.6878 1.239 0.95261 4.9716-0.41178 6.4409-0.58985 4.5491-0.55139 9.3094-0.84663 13.758 0.52508 3.6579 1.1278 6.5799 3.6524 8.1612 7.1353 1.3606 2.9968 1.2363 6.8834 4.8915 7.7968 5.4804 1.3694 11.422 1.4148 16.933 0.2428 1.7243-0.36665 4.5379-0.7823 5.7405-2.1901 1.0768-1.2605 1.2127-3.5736 1.5268-5.1439 0.86379-4.3181 1.3799-8.7026 2.0546-13.053 2.5245-16.278 8.2803-32.422 26.309-36.331 10.251-2.2226 20.806 0.11998 27.755 8.4615 7.4934 8.9955 6.833 26.014-4.4712 31.813-2.6594 1.3643-5.8998 1.7106-8.8194 1.1131-2.6598-0.54437-5.8656-1.2979-8.1139-2.8696-8.2069-5.7368-6.1738-18.682-5.9972-27.234h-0.35278c-2.6477 5.0322-5.5225 9.9781-7.0008 15.522-3.435 12.882 3.3805 20.944 15.468 24.685 15.638 4.8406 33.22 3.8896 49.389 3.8896 1.4111-32.87 3.2203-67.461 13.062-99.131 3.8016-12.233 11.017-22.221 15.866-33.867-12.837 0-29.771 1.6533-37.23 13.758-5.6928 9.2386-4.2349 20.086-5.5113 30.339-0.63584 5.1074-3.1198 9.9083-8.7644 10.522-4.6972 0.51074-9.2676-1.3787-13.758-2.4082 16.665-24.724 30.422-51.565 45.512-77.258 5.408-9.208 10.62-18.544 15.822-27.869 4.7144-8.4507 9.4801-16.605 11.732-26.106 5.2429-22.121 2.376-46.463-2.1575-68.439l-2.4694 0.35278c1.1274 6.0727 0.1251 12.605-0.32147 18.697-1.5795 21.548-10.253 43.547-18.164 63.5-2.5026 6.3123-4.8749 12.864-8.3978 18.697-1.3066 2.1636-2.8587 5.0342-5.2201 6.1875-4.5398 2.2173-6.6879-6.4676-7.5104-9.3625-3.4842-12.262-13.302-21.321-13.303-34.925 2.3061 1.2428 3.8525 4.1087 5.6583 5.9972 4.9667 5.1942 11.552 13.072 18.683 15.169-0.6289-3.1766 2.6529-6.1034 4.1244-8.8194 2.7319-5.0423 4.9859-11.234 5.7533-16.933-16.594-6.9088-33.632-16.394-48.331-26.713-3.6518-2.5637-7.2003-5.3509-10.583-8.2584-1.2154-1.0446-3.2199-2.2494-3.7561-3.8348-0.58029-1.7156 0.90843-4.6762 1.3893-6.3497 1.5311-5.3284 2.5914-11.157 4.8363-16.228 6.5524 16.986 21.505 30.759 39.511 34.925-2.2349-5.8098-7.4011-11.352-10.815-16.581-8.5276-13.062-16.849-27.247-21.185-42.333-1.6754-5.829-3.5249-12.599-2.7218-18.697 1.6037-12.179 7.8405-20.438 19.552-24.844 2.9861-1.1234 7.3745-3.0004 10.583-2.0377 5.1559 1.5469 7.5414 8.1316 8.918 12.77 3.7142 12.517 2.3542 29.815-9.6235 37.394 1.7353 3.2642 4.8853 2.5039 7.7611 1.1343 5.4668-2.6037 10.091-7.8691 12.944-13.129 6.5397-12.056 6.2587-27.915-2.8282-38.806-3.2982-3.953-8.1738-6.4771-12.585-8.9692-4.8061-2.7151-10.617-5.379-16.228-5.4947 19.386-46.625 37.572-96.357 22.727-147.11-4.1954-14.343-11.786-28.518-22.375-39.158-3.7072-3.7252-7.7783-7.818-12.7-9.8778m0 162.98c-2e-3 2.2886-0.2516 4.5149-0.96988 6.7028-5.0046 15.243-26.259 8.8088-35.013 1.3052-3.611-3.0951-6.8867-7.1768-8.0295-11.889-1.9998-8.2454 2.2618-15.287 8.0295-20.8 1.8863-1.803 4.4882-4.3857 7.0556-5.1256 6.4875-1.8696 18.337 3.0726 22.118 8.2919 6.1387 8.4743-7.2404 13.137-13.298 14.644-1.4748 0.36686-4.7088 0.30821-5.7514 1.4876-1.0844 1.2268 0.80752 4.6194 1.502 5.7354 5.9433 9.5499 16.62 1.4384 24.358-0.35252m-50.8 16.933c0.20072 4.3924 2.9692 7.9735 5.9972 10.931 8.2463 8.054 19.341 9.883 30.339 9.883-0.92897 11.753-4.7284 22.816-8.4667 33.867h-0.70555c-4.516-10.993-14.969-24.849-28.222-24.328-5.5484 0.21838-10.219 3.4633-15.522 4.572 1.4916-8.6678 6.599-17.048 10.661-24.694 1.732-3.2605 3.282-7.6287 5.9196-10.231m-31.044 140.41c0.2738-6.376 1.5863-12.267 0.55095-18.697-2.2178-13.775-13.16-26.035-27.362-27.869 2.0152-9.7374 9.1566-19.314 18.697-22.931-0.99934 12.662 3.9869 22.672 16.228 27.914 12.095 5.1797 29.185 1.1755 31.397-13.803-8.296-0.17122-17.206-2.2516-24.694-5.8159-3.0846-1.4681-6.8776-3.7382-7.8888-7.2369-1.3233-4.5783 2.0555-8.3311 5.4193-10.89 6.9281-5.2704 16.933-6.6383 24.694-2.2076 11.031 6.2971 13.79 20.499 13.418 32.148-0.57598 18.059-9.7226 36.197-26.471 44.359-7.4527 3.632-15.761 5.0304-23.989 5.0304m-106.89 21.519c-0.37332 8.6948-1.721 17.388-2.1028 26.106-1.0542 24.074 2.2916 50.785 11.881 73.025 4.8262 11.193 12.04 24.391 22.677 31.044-5.4134-16.002-16.06-29.814-18.244-46.919-1.7028-13.341-1.0448-28.327 0.7042-41.628 0.51396-3.9086 1.1934-7.8444 2.2677-11.642 0.47981-1.6958 1.9271-4.2467 1.6196-5.9972-0.44284-2.521-4.0163-5.1928-5.6502-7.0556-3.2757-3.7346-6.7866-7.3341-9.8007-11.289-1.3372-1.7544-1.9817-3.9954-3.3525-5.6444m143.93 22.931c0 6.3361 0.73182 12.287 2.7057 18.344 0.83509 2.5626 3.6702 7.5768 3.0136 10.231-0.66882 2.7032-4.8324 5.3414-6.6279 7.4083-2.5962 2.9886-6.1848 8.3873-9.6886 10.221-1.9073 0.99813-4.943 0.6031-7.0417 0.74694-6.655 0.45617-13.211-0.20469-19.403-2.908-2.0011-0.87367-4.8299-2.0946-6.132-3.9323-0.89965-1.2697-0.0887-3.1394 0.28446-4.4802 1.0344-3.7172 2.512-7.2777 4.5083-10.583 8.4342-13.966 23.158-21.107 38.381-25.047m114.3 10.231-9.525 27.517c17.743 9.4825 28.026 32.367 33.263 50.8 1.5347 5.4011 2.4814 10.997 3.0128 16.581 0.24049 2.5269-0.84663 5.5336 2.5293 5.6444 0-36.491-9.473-69.443-28.575-100.54h-0.70556m-212.37 18.485c2.2514-0.49902 5.0022 0.88944 7.0539 1.695 4.995 1.9612 9.8862 4.1655 14.817 6.2782 1.626 0.69672 5.7073 1.6162 6.4886 3.3141 0.68354 1.4856-0.34316 4.0219-0.71236 5.5056-1.1147 4.4796-2.4568 8.8684-4.4242 13.053-0.79118 1.6828-1.7874 3.9822-3.8218 4.4015-1.4788 0.30484-3.4079-0.16098-4.9386-0.16847-1.5456-8e-3 -3.0741-0.18242-4.5861-0.51259-9.8067-2.1414-4.0921-14.573-4.8042-20.621-0.13953-1.1852-1.3813-1.779-2.2503-2.4039-2.0965-1.5076-7.8473-9.4276-2.8217-10.541m65.262 44.31-11.642-3.4406-5.6444-2.2577-7.4083 7.4622c-4.5652-6.8991-7.159-15.048-3.4148-22.931 0.77364-1.6288 2.8075-5.781 4.8398-5.9841 2.1512-0.21506 5.875 4.2648 7.3944 5.6136 6.5552 5.8193 15.874 11.958 15.875 21.537z" fill="#942f21"/>
  <g transform="translate(-14.515 318.15)" filter="url(#f)" opacity=".4" style="mix-blend-mode:normal">
   <path d="m954.23 90.939c-0.8267 0-1.433 0.16778-2.0195 0.36328l0.5566-0.13694-23.553 3.744 0.5488-0.045c-0.922 0-2.3058 0.37244-3.2189 1.387-0.9131 1.0145-1.1033 2.1979-1.1033 3.0272v4.2912c0 0.91808 0.2851 2.2344 1.2774 3.2267 0.9924 0.99232 2.3081 1.2769 3.2262 1.2769l-0.3493-0.0176 12.371 1.2444v30.914c-3.7197-0.63588-7.1956-1.0702-10.195-1.0702-14.264 0-26.434 5.1508-35.631 15.195a3.5004 3.5004 0 0 0-0.011 0.0134c-8.8025 9.7153-13.231 22.066-13.231 36.402 0 10.736 2.9734 20.312 8.9085 28.291a3.5004 3.5004 0 0 0 0 2e-3c6.5748 8.8328 15.854 13.551 26.727 13.551 8.2787 0 16.384-2.803 24.195-7.9086l0.1587 2.5275a3.5004 3.5004 0 0 0 0.01 0.0977c0.074 0.81093 0.3081 1.9116 1.2852 2.8887 0.9771 0.97713 2.5191 1.2965 3.5 1.1875l-0.156 0.0139 27.844-1.8262a3.5004 3.5004 0 0 0 0.1581-0.014c0.8466-0.0941 1.9964-0.48349 2.8319-1.4118 0.8354-0.92831 1.1033-2.1235 1.1033-2.9807v-4.2907c0-0.91808-0.2846-2.2344-1.277-3.2267-0.9923-0.99233-2.3086-1.2774-3.2267-1.2774l0.3768 0.0217-11.211-1.2211v-119.83c0-0.94599-0.3701-2.3419-1.3968-3.2752-1.0268-0.93338-2.2423-1.1384-3.1073-1.1384zm-23.92 63.695c2.2603 0 5.0974 0.35168 8.4393 1.0997 1.4728 0.3438 2.4453 0.805 3.2169 1.2852v52.022c-4.7055 2.8151-9.7456 4.2344-15.398 4.2344-7.2659 1e-5 -11.875-2.5515-15.35-8.3437a3.5004 3.5004 0 0 0-0.013-0.0232c-2.9174-4.7739-4.5078-11.193-4.5078-19.447 0-8.9118 1.9596-16.006 5.7051-21.6 1e-3 -2e-3 4e-4 -4e-3 0-6e-3 4.3048-6.3401 9.8362-9.2206 17.906-9.2206zm-262.57-60.316c-5.7573 1e-4 -11.277 0.8448-16.509 2.5451a3.5004 3.5004 0 0 0-0.01 2e-3c-8.1824 2.6838-14.981 7.3121-20.092 13.75a3.5004 3.5004 0 0 0-6e-3 6e-3c-5.262 6.6608-7.9649 14.51-7.9649 23.076 0 8.7105 3.355 16.582 9.6971 22.924 4.8344 4.8344 11.848 9.2658 21.08 13.57l12.324 5.7516-4e-3 -4e-3c12.984 6.0861 18.436 13.086 18.436 21.756 0 6.4292-2.2528 10.765-7.3458 14.283a3.5004 3.5004 0 0 0-6e-3 4e-3c-4.5079 3.129-10.145 4.762-17.268 4.762-6.95 0-12.205-0.97923-15.844-2.5802l-3.5331-19.91 0.0527 0.61133c0-1.3188-0.83333-2.5789-1.541-3.145s-1.3044-0.77077-1.865-0.93896a3.5004 3.5004 0 0 0-1.0061-0.14676h-7.6698c-0.88765 0-2.1814 0.27501-3.1585 1.2521-0.97712 0.97712-1.2537 2.2724-1.2537 3.16v28.211c0 1.1548 0.60653 2.3294 1.2537 2.9766 0.64713 0.64713 1.2749 0.95166 1.8593 1.1854a3.5004 3.5004 0 0 0 0.016 6e-3c2.2009 0.86701 4.5939 1.5866 7.1794 2.1683 8.8299 1.9898 16.707 3.0055 23.684 3.0055 13.523 0 25.109-3.2781 34.369-9.9766l-2e-3 4e-3c10.428-7.5237 15.875-18.62 15.875-32.053 0-9.1515-3.0809-17.225-9.0956-23.51a3.5004 3.5004 0 0 0-4e-3 -4e-3c-4.8153-5.0187-12.056-9.5932-21.781-14.082a3.5004 3.5004 0 0 0-8e-3 -4e-3l-12.14-5.5681-2e-3 -2e-3c-6.5629-3.0156-11.17-5.8792-13.662-8.2166l-2e-3 -2e-3c-3.8342-3.625-5.5661-7.6288-5.5661-12.793 0-5.3401 1.8487-9.0604 6.0958-12.272a3.5004 3.5004 0 0 0 2e-3 0c3.8626-2.9231 8.4849-4.4044 14.32-4.4044 5.3994 0 10.333 1.0467 14.967 2.9533l3.498 19.633-0.0527-0.6134c0 0.97262 0.50005 2.4466 1.541 3.2794 1.0409 0.83277 2.1002 0.9493 2.8711 0.9493h7.3045c0.88765 0 2.1814-0.27501 3.1585-1.2521 0.97712-0.97712 1.2537-2.2724 1.2537-3.16v-28.301c0-0.97262-0.44155-2.2559-1.2537-3.068-0.81211-0.81212-1.7284-1.1286-2.4727-1.2774l0.31832 0.0801c-2.4909-0.74727-4.808-1.3748-6.9593-1.881a3.5004 3.5004 0 0 0-0.01-2e-3c-7.8457-1.8202-15.541-2.7383-23.067-2.7383h-5.1e-4zm344.5 1.8262c-3.6749 0-7.1621 1.321-9.7379 3.8163-2.5563 2.4746-3.8969 5.9607-3.8969 9.6351 0 3.6749 1.3302 7.1618 3.8556 9.6873a3.5004 3.5004 0 0 0 0.082 0.078c2.5846 2.4231 6.0465 3.6856 9.6971 3.6856s7.1109-1.2706 9.6464-3.7243a3.5004 3.5004 0 0 0 0.041-0.0393c2.5254-2.5254 3.8556-6.0129 3.8556-9.6878 0-3.6643-1.3346-7.1396-3.8773-9.6128-2.5238-2.5126-6.0007-3.838-9.666-3.838zm-274.04 27.297c-1.926 0-3.0671 0.97679-3.9357 1.8454a3.5004 3.5004 0 0 0-8e-3 0.0103l-23.92 24.101 0.20723-0.1912c-0.86372 0.74034-1.8614 2.0275-1.8614 3.7538v0.91209c0 0.85722 0.26852 2.1299 1.2304 3.0918 0.96189 0.9619 2.233 1.2304 3.0902 1.2304h8.277v53.832c0 5.8528 2.1917 11.122 6.3459 14.912 4.1016 3.7418 9.3959 5.6601 15.231 5.6601 5.1774 0 10.276-0.82315 15.244-2.4572a3.5004 3.5004 0 0 0 0.0134-4e-3c3.91-1.3033 8.2391-3.6331 13.17-6.9339 1.3948-0.8781 2.4685-3.3541 2.1032-4.9976a3.5004 3.5004 0 0 0-0.29869-0.83044l-2.373-4.656a3.5004 3.5004 0 0 0-1.1756-1.3224c-0.55593-0.37061-1.1564-0.61348-1.7327-0.75757a3.5004 3.5004 0 0 0-0.27337-0.0569c-1.236-0.206-2.9978 0.28684-3.9631 1.2521l0.23823-0.21859c-2.8732 2.3862-6.6666 3.6659-11.914 3.6659-3.332 0-5.135-0.81237-6.3572-2.1838-1.2222-1.3715-2.1037-3.7829-2.1037-7.7365v-47.168h22.246c0.94598 0 2.3419-0.36957 3.2753-1.3963s1.1369-2.2428 1.1369-3.1078v-6.6657c0-0.86505-0.20349-2.0806-1.1369-3.1073-0.93339-1.0267-2.3293-1.3968-3.2753-1.3968h-22.246v-14.576c0-0.81203-0.13472-1.9164-0.99581-2.9688-0.8611-1.0524-2.3375-1.5353-3.3243-1.5353zm349.34 15.703c-13.537 0-24.938 4.5466-33.324 13.527a3.5004 3.5004 0 0 0 0 2e-3c-8.1232 8.7176-12.168 20.211-12.168 33.791 0 13.715 3.8186 25.061 11.627 33.342 7.9546 8.5499 19.238 12.793 32.955 12.793 13.371 0 24.708-4.5913 33.141-13.617a3.5004 3.5004 0 0 0 0.012-0.0119c8.163-8.8214 12.252-20.279 12.252-33.691 0-13.884-3.7394-25.283-11.443-33.523a3.5004 3.5004 0 0 0 0-5.2e-4 3.5004 3.5004 0 0 0 0-5.1e-4 3.5004 3.5004 0 0 0 0-5.2e-4 3.5004 3.5004 0 0 0 0-5.2e-4c-7.9102-8.4465-19.22-12.61-33.047-12.61zm-2.3745 15.125c8.4327 0 13.856 3.3333 17.894 11.082a3.5004 3.5004 0 0 0 0.01 0.0134c3.1811 6.0331 4.8906 14.01 4.8906 24.022 0 10.145-1.8693 17.349-4.9883 21.73-3.1191 4.3818-7.3656 6.4492-14.063 6.4492-4.2618 0-7.6179-0.96415-10.395-2.7988-8.1107-5.3742-12.488-15.755-12.488-32.594 0-8.2874 1.4895-14.724 4.1915-19.44a3.5004 3.5004 0 0 0 0-5.2e-4 3.5004 3.5004 0 0 0 0-2e-3 3.5004 3.5004 0 0 0 0-2e-3c3.3771-5.9099 7.833-8.4605 14.945-8.4605zm86.074-15.125c-8.5134 0-16.116 2.2474-22.404 6.7774a3.5004 3.5004 0 0 0 0 2e-3c-7.2639 5.2461-11.31 12.56-11.31 20.914 0 5.892 1.9901 11.345 5.7832 15.82 3.793 4.4748 9.2599 8.0056 16.227 10.799l8.3395 3.3554c2.3558 1.0604 4.0105 1.8136 4.8752 2.2169 4.6471 2.2209 6.2244 4.6196 6.2244 8.707 0 3.8102-0.971 5.9432-2.7693 7.4554s-4.9334 2.5564-9.7989 2.5564c-3.7328 0-7.3051-0.83399-10.836-2.3611l-2.7109-13.889 0.066 0.66973c0-1.0456-0.6284-2.6046-1.6934-3.3791s-2.0537-0.85163-2.8127-0.85163h-5.7496c-0.771 0-1.8301 0.11651-2.8711 0.9493-1.0409 0.83279-1.5431 2.3089-1.5431 3.2814v21.637c0 0.922 0.3472 2.1469 1.1385 3.0174s1.7886 1.2602 2.5879 1.4201c8.5207 2.8439 16.098 4.3574 22.78 4.3574 9.2454 0 17.489-2.4624 24.32-7.414v-2e-3c7.687-5.5303 11.861-13.524 11.861-22.832 0-5.6389-2.1186-10.911-6.0327-15.26-3.9141-4.349-9.5118-7.8725-16.684-10.805a3.5004 3.5004 0 0 0 0-5.2e-4 3.5004 3.5004 0 0 0 0-5.1e-4 3.5004 3.5004 0 0 0 0-5.2e-4 3.5004 3.5004 0 0 0 0-5.2e-4l-7.8517-3.1952a3.5004 3.5004 0 0 0 0-5.2e-4 3.5004 3.5004 0 0 0 0-5.1e-4 3.5004 3.5004 0 0 0 0-5.2e-4 3.5004 3.5004 0 0 0 0-5.2e-4c-4.2121-1.7076-7.1746-3.6012-8.9338-5.4198-1.7591-1.8186-2.3942-3.4028-2.3942-5.3046 0-1.3978 0.3025-2.5499 0.9276-3.6778 1.8531-3.2938 4.7648-4.8731 10.545-4.8731 2.9853 0 5.5316 0.54896 7.8357 1.4495l2.7972 13.56-0.072-0.70693c0 1.3189 0.8334 2.5784 1.541 3.1445 0.7077 0.5661 1.3048 0.76923 1.8655 0.93741a3.5004 3.5004 0 0 0 1.0056 0.14831h5.7521c0.759 0 1.7457-0.0772 2.8107-0.85163 1.065-0.7745 1.6934-2.333 1.6934-3.3786v-21.09c0-0.98688-0.4334-2.2944-1.2758-3.1368-0.8321-0.83204-1.788-1.1545-2.572-1.3007-7.0338-2.2593-13.93-3.4432-20.65-3.4432zm-368.45 0.8201a3.5004 3.5004 0 0 0-0.4961 0.0351c-0.5184 0.0741-0.8981 0.1197-1.5234 0.32815l0.5312-0.13281-22.459 3.7445 0.57619-0.0491c-0.97262 0-2.4487 0.50211-3.2814 1.5431s-0.9493 2.1002-0.9493 2.8711v4.2912c0 0.88765 0.275 2.1808 1.2521 3.158 0.97711 0.97712 2.2724 1.2542 3.16 1.2542l-0.39843-0.0238 11.322 1.3007v47.627c0 7.8275 2.7733 14.65 8.1623 19.557v4e-3c5.18 4.758 12.005 7.1272 19.802 7.1272 8.7179 0 17.092-2.9439 24.971-8.3184l0.2031 2.959a3.5004 3.5004 0 0 0 0.01 0.076c0.074 0.81092 0.308 1.9116 1.2851 2.8887 0.9772 0.97712 2.5192 1.2965 3.5001 1.1875l-0.1561 0.0139 27.844-1.8262a3.5004 3.5004 0 0 0 0.2052-0.0196c0.8846-0.11057 2.0857-0.60855 2.8473-1.5606 0.7617-0.95207 0.9493-2.0338 0.9493-2.8262v-4.2907c0-0.86505-0.205-2.0811-1.1384-3.1078-0.9334-1.0267-2.3298-1.3963-3.2758-1.3963l0.3773 0.0217-11.301-1.2227v-70.799c0-0.88765-0.2766-2.1834-1.2537-3.1605-0.9771-0.97711-2.2708-1.2537-3.1585-1.2537h-5.2048a3.5004 3.5004 0 0 0-0.3866 0.0212c-0.6185 0.0687-1.0721 0.12203-1.6485 0.26614l0.2714-0.0568-22.367 3.744 0.5783-0.0486c-0.922 0-2.3058 0.37194-3.2189 1.3865-0.9131 1.0145-1.1033 2.1984-1.1033 3.0277v4.2907c0 0.94598 0.3696 2.3403 1.3963 3.2737 1.0267 0.93339 2.2422 1.1384 3.1073 1.1384l-0.4021-0.0232 11.236 1.3007v50.074c-5.621 3.3184-10.903 4.916-15.947 4.916-5.2626 0-8.583-1.2564-10.677-3.3398-2.0943-2.0834-3.3496-5.3718-3.3496-10.598v-54.959c0-0.88765-0.2771-2.1829-1.2542-3.16-0.9771-0.9771-2.2724-1.2542-3.1601-1.2542zm211.83 0a3.5004 3.5004 0 0 0-0.4335 0.0274c-0.5582 0.0698-0.9997 0.13246-1.5095 0.25993l0.2734-0.0568-22.459 3.7445 0.5762-0.0491c-0.9727 0-2.4488 0.5021-3.2815 1.5431-0.8327 1.041-0.9488 2.1002-0.9488 2.8711v4.2912c0 0.88764 0.2745 2.1808 1.2516 3.158s2.2729 1.2542 3.1606 1.2542l-0.3985-0.0238 11.322 1.3012v57.052l-10.808 1.0588 0.3416-0.0176c-0.9181 0-2.2364 0.28512-3.2288 1.2774-0.9923 0.99233-1.2753 2.3081-1.2753 3.2262v4.6566c0 0.94598 0.37 2.3419 1.3968 3.2752 1.0267 0.93339 2.2422 1.1384 3.1073 1.1384h42.178c0.8651 0 2.0806-0.20503 3.1073-1.1384s1.3963-2.3293 1.3963-3.2752v-4.6566c0-0.91806-0.2831-2.2338-1.2754-3.2262-0.9923-0.99234-2.3101-1.2774-3.2282-1.2774l0.3669 0.0196-9.9219-1.0433v-70.977c0-0.88762-0.2766-2.1829-1.2537-3.16-0.9771-0.97713-2.2724-1.2542-3.16-1.2542z" color="#000000" style="paint-order:markers fill stroke"/>
   <path d="m755.41-65.991c-0.82679 0-1.433 0.16778-2.0195 0.36329l0.55862-0.13695-23.555 3.7424 0.5488-0.0429c-1.3188 0-2.5763 0.83334-3.1424 1.541-0.56611 0.70764-0.77129 1.3065-0.93948 1.8671a3.5004 3.5004 0 0 0-0.14883 1.0041v4.2907c0 0.88765 0.27707 2.1834 1.2542 3.1605 0.97712 0.97712 2.2724 1.2537 3.16 1.2537l-0.36897-0.0196 12.388 1.3146v106.04l-12.324 1.08 0.30437-0.014c-0.94598 0-2.3419 0.37009-3.2752 1.3968-0.9334 1.0267-1.139 2.2422-1.139 3.1073v4.656c0 0.88764 0.27707 2.1829 1.2542 3.16 0.97712 0.9771 2.2724 1.2521 3.16 1.2521h46.377c0.88764 0 2.1829-0.27502 3.16-1.2521 0.97712-0.97711 1.2542-2.2724 1.2542-3.16v-4.656c0-0.88765-0.27658-2.1143-1.139-3.0629s-2.0464-1.3358-2.9254-1.4237a3.5004 3.5004 0 0 0-0.047-4e-3l-12.504-1.0817v-119.96c0-0.88765-0.27656-2.1829-1.2537-3.16-0.9771-0.97712-2.2724-1.2542-3.16-1.2542zm60.115 0c-0.8268 0-1.4351 0.16778-2.0216 0.36329l0.5586-0.13695-23.555 3.7424 0.5488-0.0429c-1.3188 0-2.5763 0.83334-3.1424 1.541-0.56611 0.70764-0.77128 1.3065-0.93947 1.8671a3.5004 3.5004 0 0 0-0.14831 1.0041v4.2907c1e-5 0.88765 0.27656 2.1834 1.2537 3.1605 0.97712 0.97712 2.2724 1.2537 3.16 1.2537l-0.36897-0.0196 12.389 1.3146v106.04l-12.324 1.08 0.30437-0.014c-0.94598 0-2.3419 0.37009-3.2752 1.3968-0.9334 1.0267-1.1384 2.2422-1.1384 3.1073v4.656c1e-5 0.88764 0.27655 2.1829 1.2537 3.16 0.97712 0.9771 2.2724 1.2521 3.16 1.2521h46.377c0.8877 0 2.1835-0.27502 3.1606-1.2521 0.9771-0.97711 1.2536-2.2724 1.2536-3.16v-4.656c0-0.88765-0.276-2.1143-1.1384-3.0629s-2.0469-1.3358-2.9259-1.4237a3.5004 3.5004 0 0 0-0.047-4e-3l-12.504-1.0817v-119.96c0-0.88765-0.277-2.1829-1.2542-3.16-0.9771-0.97712-2.2723-1.2542-3.16-1.2542zm60.113 0c-0.8268 0-1.433 0.16778-2.0195 0.36329l0.5565-0.13695-23.555 3.7424 0.5488-0.0429c-0.9726 0-2.4461 0.50004-3.2789 1.541-0.8327 1.041-0.9493 2.1002-0.9493 2.8711v4.2907c0 0.86505 0.203 2.0811 1.1364 3.1078s2.3298 1.3984 3.2758 1.3984l-0.3478-0.0176 12.367 1.2361v106.04l-10.899 1.0583 0.3401-0.0155c-0.946 0-2.3419 0.37009-3.2753 1.3968-0.9334 1.0267-1.1389 2.2422-1.1389 3.1073v4.656c0 0.88764 0.277 2.1829 1.2541 3.16 0.9772 0.9771 2.2724 1.2521 3.1601 1.2521h41.904c0.8876 0 2.1829-0.27502 3.16-1.2521 0.9771-0.97711 1.2521-2.2724 1.2521-3.16v-4.656c0-0.86505-0.2055-2.0806-1.1389-3.1073-0.9334-1.0267-2.3273-1.3968-3.2732-1.3968l0.3767 0.0196-9.5663-1.0372v-53.662c0.8077-0.3766 1.6189-0.75879 2.7559-1.0836a3.5004 3.5004 0 0 0 0.047-0.014c5.4215-1.6323 10.126-2.4081 14.054-2.4081 5.1375 0 8.2785 1.3446 10.43 3.8339s3.5077 6.6229 3.5077 12.844v40.48l-9.6583 1.047 0.3767-0.0196c-0.9459 0-2.3397 0.36957-3.2731 1.3963s-1.139 2.2428-1.139 3.1078v4.656c0 0.88764 0.2771 2.1829 1.2542 3.16 0.9771 0.9771 2.2703 1.2521 3.1579 1.2521h40.992c0.8876 0 2.1829-0.27502 3.16-1.2521 0.9771-0.97711 1.2521-2.2724 1.2521-3.16v-4.656c0-0.86505-0.205-2.0811-1.1384-3.1078s-2.3277-1.3963-3.2737-1.3963l0.3653 0.0196-9.9198-1.0449v-45.961c0-9.5587-2.1336-17.282-6.9375-22.666-4.8039-5.384-12.038-7.9494-20.756-7.9494-8.3899 0-16.839 2.6273-25.258 7.4274v-50.851c0-0.88765-0.277-2.1834-1.2541-3.1605-0.9772-0.97712-2.2724-1.2537-3.1601-1.2537zm202.73 0c-0.8268 0-1.433 0.16779-2.0195 0.36329l0.5565-0.13695-23.555 3.7424 0.5509-0.0429c-1.3188 0-2.5784 0.83532-3.1445 1.5431-0.5662 0.70774-0.7713 1.3044-0.9395 1.865a3.5004 3.5004 0 0 0-0.1468 1.0041v4.2907c0 0.88761 0.275 2.1834 1.2521 3.1605s2.2725 1.2537 3.1601 1.2537l-0.369-0.0196 12.389 1.3146v106.04l-12.324 1.08 0.3044-0.014c-0.946 0-2.3398 0.37007-3.2732 1.3968-0.9334 1.0267-1.139 2.2423-1.139 3.1073v4.656c0 0.88761 0.275 2.1829 1.2521 3.16 0.9771 0.97713 2.2725 1.2521 3.1601 1.2521h46.379c0.8877 0 2.1809-0.27504 3.158-1.2521 0.9772-0.97709 1.2542-2.2723 1.2542-3.16v-4.656c0-0.88768-0.2761-2.1143-1.1385-3.0629-0.8624-0.94859-2.0469-1.3358-2.9259-1.4237a3.5004 3.5004 0 0 0-0.047-4e-3l-12.504-1.0816v-119.96c0-0.88761-0.2765-2.1829-1.2536-3.16-0.9771-0.97714-2.2724-1.2542-3.16-1.2542zm99.311 0c-0.8267 0-1.4329 0.16779-2.0195 0.36329l0.5566-0.13695-23.555 3.7424 0.5504-0.0429c-0.922 0-2.3054 0.37192-3.2184 1.3865-0.9131 1.0146-1.1038 2.1964-1.1038 3.0256v4.2907c0 0.91805 0.283 2.2364 1.2753 3.2287 0.9923 0.99235 2.3107 1.2774 3.2288 1.2774l-0.3499-0.0176 12.369 1.2438v30.914c-3.7192-0.63575-7.1938-1.0723-10.193-1.0723-14.264 0-26.434 5.1524-35.631 15.197a3.5004 3.5004 0 0 0-0.012 0.014c-8.8025 9.7153-13.231 22.066-13.231 36.402 0 10.736 2.9733 20.311 8.9085 28.291 6.5748 8.8328 15.854 13.553 26.727 13.553 8.2782 0 16.383-2.8031 24.193-7.908l0.1582 2.5275a3.5004 3.5004 0 0 0 0.01 0.0977c0.074 0.81089 0.3081 1.9116 1.2852 2.8887 0.9771 0.97714 2.5191 1.2945 3.5 1.1855l-0.1581 0.0155 27.846-1.8262a3.5004 3.5004 0 0 0 0.1582-0.0134c0.8466-0.0941 1.9944-0.484 2.8298-1.4123 0.8354-0.92831 1.1038-2.1235 1.1038-2.9807v-4.2907c0-0.91806-0.2831-2.2364-1.2754-3.2287s-2.3107-1.2754-3.2288-1.2754l0.3788 0.0217-11.211-1.2206v-119.83c0-0.94595-0.3696-2.3418-1.3963-3.2752-1.0267-0.93341-2.2429-1.139-3.1079-1.139zm-23.925 63.695c2.2603 0 5.0974 0.35168 8.4393 1.0997 1.4712 0.34344 2.4434 0.80353 3.2148 1.2831v52.024c-4.7049 2.8142-9.7449 4.2344-15.396 4.2344-7.2659 0-11.874-2.552-15.349-8.3442a3.5004 3.5004 0 0 0-0.016-0.0233c-2.9174-4.7739-4.5078-11.193-4.5078-19.447 0-8.9064 1.9563-15.998 5.6974-21.59v-4e-3c4.306-6.3487 9.8381-9.2325 17.914-9.2325zm-654-60.316c-5.7575 5e-5 -11.279 0.84423-16.511 2.5446a3.5004 3.5004 0 0 0-8e-3 2e-3c-8.1824 2.6838-14.981 7.31-20.092 13.748a3.5004 3.5004 0 0 0-6e-3 8e-3c-5.262 6.6608-7.9649 14.51-7.9649 23.076 0 8.7105 3.3555 16.582 9.6976 22.924 4.8347 4.8347 11.847 9.2655 21.08 13.57l12.324 5.75c12.979 6.0855 18.429 13.084 18.429 21.752 0 6.4292-2.2507 10.767-7.3437 14.285a3.5004 3.5004 0 0 0-8e-3 4e-3c-4.5079 3.129-10.143 4.762-17.266 4.762-6.9494 0-12.205-0.98155-15.844-2.5823l-3.5352-19.91 0.0548 0.61134c0-1.3188-0.83541-2.5768-1.543-3.143-0.70765-0.56612-1.3044-0.7713-1.865-0.93948a3.5004 3.5004 0 0 0-1.0056-0.14831h-7.6683c-0.88763 0-2.1829 0.27706-3.16 1.2542-0.97712 0.97711-1.2542 2.2724-1.2542 3.16v28.209c0 1.1548 0.60706 2.331 1.2542 2.9781s1.2749 0.95218 1.8593 1.186a3.5004 3.5004 0 0 0 0.0176 6e-3c2.2009 0.86703 4.5944 1.5861 7.1799 2.1678l-2e-3 -2e-3c8.8299 1.9898 16.709 3.0076 23.685 3.0076 13.521 0 25.106-3.2777 34.365-9.9746l4e-3 -2e-3c10.425-7.5237 15.873-18.62 15.873-32.051 0-9.1515-3.0808-17.223-9.0956-23.508a3.5004 3.5004 0 0 0-4e-3 -4e-3c-4.8153-5.0187-12.058-9.5952-21.783-14.084a3.5004 3.5004 0 0 0-8e-3 -2e-3l-12.138-5.5686-2e-3 -2e-3c-6.567-3.0175-11.177-5.8867-13.668-8.2248-8.2e-4 -7.6e-4 -3e-3 -1e-3 -4e-3 -2e-3 -3.8283-3.6229-5.5609-7.6248-5.5609-12.785 0-5.3401 1.8508-9.0599 6.0978-12.271a3.5004 3.5004 0 0 0 2e-3 0c3.8626-2.9231 8.4849-4.4044 14.32-4.4044 5.399 0 10.331 1.0465 14.965 2.9528l3.5 19.633-0.0548-0.61495c0 0.97262 0.50211 2.4482 1.5431 3.2809 1.041 0.83276 2.1002 0.9493 2.8711 0.9493h7.3029c0.88765 0 2.1829-0.27656 3.16-1.2537 0.97711-0.97712 1.2537-2.2708 1.2537-3.1585v-28.303c0-0.97262-0.44155-2.2564-1.2537-3.0686-0.81212-0.81212-1.7284-1.1265-2.4727-1.2754l0.31833 0.0801c-2.4909-0.74728-4.8075-1.3743-6.9588-1.8805a3.5004 3.5004 0 0 0-0.0119-2e-3c-7.8459-1.8202-15.539-2.7383-23.066-2.7383zm186.02 44.824v5.2e-4c-13.076 0-24.101 5.331-31.98 15.508-5.7e-4 7.4e-4 -1e-3 1e-3 -2e-3 2e-3 -7.1976 9.2315-10.774 20.665-10.774 33.82 0 12.883 3.7186 23.681 11.258 31.694 7.6866 8.2833 18.425 12.433 31.316 12.433 11.628 0 23.096-3.8315 34.18-11.223 1.3939-0.87923 2.4667-3.3533 2.1017-4.9961a3.5004 3.5004 0 0 0-0.38861-0.99581l-2.6469-4.5666a3.5004 3.5004 0 0 0-0.55242-0.71882c-0.0451-0.0451-0.0472-0.0548-0.0196-0.0134a3.5004 3.5004 0 0 0-0.97049-0.971c-0.83799-0.55865-2.2461-0.77049-3.1993-0.49816-0.95313 0.27233-1.4777 0.73772-1.8572 1.1172l0.62064-0.49196c-6.3085 3.9428-12.904 5.8591-20.057 5.8591-8.909 0-15.024-2.8848-19.562-8.9121l-2e-3 -4e-3c-3.435-4.5971-5.4818-10.826-6.1366-18.686h50.078c0.88765 0 2.1808-0.27655 3.158-1.2537 0.97712-0.97711 1.2542-2.2708 1.2542-3.1585l-0.0238 0.40824c0.25834-2.1959 0.3886-4.3403 0.3886-6.4337 0-11.417-2.9072-20.805-9.033-27.551a3.5004 3.5004 0 0 0-4e-3 -4e-3c-6.3519-6.9732-15.708-10.365-27.146-10.365zm-1.7343 15.309c5.3328 0 8.4446 1.5624 10.738 4.9139 1.9508 2.8504 3.1503 7.5123 3.3259 13.832h-30.463c0.2695-1.6934 0.42351-3.3561 0.8847-5.102 1.3052-4.9429 3.294-8.3002 5.7676-10.427 2.4736-2.1271 5.5261-3.2168 9.7462-3.2168zm-82.238-15.309c-8.1351 0-15.993 2.5521-23.432 7.2657v-2.0293c0-0.88765-0.27707-2.1834-1.2542-3.1605-0.97711-0.97712-2.2724-1.2537-3.16-1.2537h-5.2028a3.5004 3.5004 0 0 0-0.38706 0.0217c-0.61847 0.0687-1.0721 0.1215-1.6485 0.26561l0.27181-0.0568-22.368 3.744 0.57619-0.0486c-1.3188 0-2.5763 0.83333-3.1424 1.541s-0.77129 1.3065-0.93948 1.8671a3.5004 3.5004 0 0 0-0.14831 1.0041v4.2912c0 0.88765 0.27656 2.1829 1.2537 3.16 0.97712 0.97712 2.2729 1.2537 3.1605 1.2537l-0.40256-0.0233 11.237 1.3007v102.88l-10.811 1.0583 0.34158-0.0176c-0.88765 0-2.1829 0.27655-3.16 1.2537-0.97712 0.97711-1.2537 2.2708-1.2537 3.1585v4.748c0 0.88765 0.27655 2.1829 1.2537 3.16 0.97711 0.97712 2.2724 1.2521 3.16 1.2521h44.461c0.86505 0 2.0806-0.2035 3.1073-1.1369 1.0267-0.93339 1.3963-2.3293 1.3963-3.2753v-4.748c0-0.94598-0.36955-2.3403-1.3963-3.2737-1.0267-0.93339-2.2423-1.1384-3.1073-1.1384l0.31058 0.0139-12.149-1.0821v-29.612c3.7196 0.63588 7.1934 1.0702 10.193 1.0702 14.482 0 26.72-5.0704 35.814-15.016a3.5004 3.5004 0 0 0 0.0119-0.0114c8.7532-9.6677 13.139-22.081 13.139-36.586 0-10.906-2.9652-20.521-8.9219-28.399-6.5818-8.7717-15.887-13.445-26.805-13.445zm-8.0331 19.416c7.2746 0 11.886 2.536 15.355 8.2656a3.5004 3.5004 0 0 0 0.0176 0.0253c2.9037 4.6987 4.4984 11.115 4.4984 19.433 0 4.6548-0.54676 8.8657-1.6056 12.657-1.8105 6.4498-4.5663 10.941-8.1153 13.851s-8.0039 4.4101-13.895 4.4101c-5.8483 0-9.5808-1.0746-11.654-2.4546v-52.039c4.6386-2.7497 9.6787-4.1486 15.399-4.1486zm408.57-19.416c-13.537 0-24.938 4.5466-33.325 13.527a3.5004 3.5004 0 0 0 0 4e-3c-8.1232 8.7175-12.168 20.211-12.168 33.791 0 13.715 3.819 25.061 11.627 33.342 7.9545 8.5499 19.238 12.793 32.955 12.793 13.371 0 24.708-4.5913 33.141-13.617a3.5004 3.5004 0 0 0 0.012-0.0134c8.1631-8.8214 12.252-20.279 12.252-33.691 0-13.884-3.7379-25.282-11.442-33.521a3.5004 3.5004 0 0 0 0-5.1e-4 3.5004 3.5004 0 0 0 0-5.2e-4 3.5004 3.5004 0 0 0 0-5.2e-4 3.5004 3.5004 0 0 0 0-5.1e-4c-7.9122-8.4465-19.224-12.611-33.051-12.611zm-2.3735 15.127h5e-4c8.4324 1.5e-4 13.856 3.3314 17.894 11.08a3.5004 3.5004 0 0 0 0.01 0.016c3.1811 6.0331 4.8906 14.009 4.8906 24.021 0 10.145-1.8693 17.347-4.9883 21.728s-7.3635 6.4513-14.061 6.4513c-4.2618 0-7.6195-0.96414-10.396-2.7988-8.1106-5.3742-12.489-15.755-12.489-32.594 0-8.2874 1.4916-14.724 4.1935-19.439a3.5004 3.5004 0 0 0 0-4e-3c3.377-5.9098 7.8328-8.4608 14.945-8.461z" color="#000000" style="paint-order:markers fill stroke"/>
  </g>
  <g fill="#e0decb">
   <path d="m935.14 405.49c-0.82676 0-1.433 0.16778-2.0195 0.36328l0.55655-0.13694-23.553 3.744 0.54881-0.045c-0.92203 0-2.3058 0.37244-3.2189 1.387-0.91308 1.0145-1.1033 2.1979-1.1033 3.0272v4.2912c0 0.91808 0.28511 2.2344 1.2774 3.2267 0.99233 0.99232 2.3081 1.2769 3.2262 1.2769l-0.34933-0.0176 12.371 1.2444v30.914c-3.7196-0.63588-7.1955-1.0702-10.195-1.0702-14.264 0-26.434 5.1508-35.631 15.195a3.5004 3.5004 0 0 0-0.0114 0.0134c-8.8025 9.7153-13.231 22.066-13.231 36.402 0 10.736 2.9734 20.312 8.9085 28.291a3.5004 3.5004 0 0 0 0 2e-3c6.5748 8.8328 15.854 13.551 26.727 13.551 8.2787 0 16.384-2.803 24.195-7.9086l0.15865 2.5275a3.5004 3.5004 0 0 0 6e-3 0.0977c0.0737 0.81093 0.30808 1.9116 1.2852 2.8887 0.97713 0.97713 2.5191 1.2965 3.5 1.1875l-0.15606 0.0139 27.844-1.8262a3.5004 3.5004 0 0 0 0.15813-0.014c0.84657-0.0941 1.9964-0.48349 2.8319-1.4118 0.83547-0.92831 1.1033-2.1235 1.1033-2.9807v-4.2907c0-0.91808-0.2846-2.2344-1.2769-3.2267s-2.3086-1.2774-3.2267-1.2774l0.37673 0.0217-11.211-1.2211v-119.83c0-0.94599-0.37007-2.3419-1.3968-3.2752s-2.2423-1.1384-3.1073-1.1384zm-23.92 63.695c2.2602 0 5.0974 0.35168 8.4393 1.0997 1.4728 0.3438 2.4452 0.805 3.2169 1.2852v52.022c-4.7055 2.8151-9.7456 4.2344-15.398 4.2344-7.2659 1e-5 -11.875-2.5515-15.35-8.3437a3.5004 3.5004 0 0 0-0.0134-0.0232c-2.9174-4.7739-4.5077-11.193-4.5077-19.447 0-8.9118 1.9595-16.006 5.7051-21.6 1e-3 -2e-3 4e-4 -4e-3 2e-3 -6e-3 4.3048-6.3401 9.8361-9.2206 17.906-9.2206zm-262.57-60.316c-5.7573 1e-4 -11.277 0.8448-16.509 2.5451a3.5004 3.5004 0 0 0-0.01 2e-3c-8.1824 2.6838-14.981 7.3121-20.092 13.75a3.5004 3.5004 0 0 0-6e-3 6e-3c-5.262 6.6608-7.9649 14.51-7.9649 23.076 0 8.7105 3.355 16.582 9.6971 22.924 4.8344 4.8344 11.848 9.2658 21.08 13.57l12.324 5.7516-4e-3 -4e-3c12.984 6.0861 18.436 13.086 18.436 21.756 0 6.4292-2.2528 10.765-7.3458 14.283a3.5004 3.5004 0 0 0-6e-3 4e-3c-4.5079 3.129-10.145 4.762-17.268 4.762-6.95 0-12.205-0.97923-15.844-2.5802l-3.5331-19.91 0.0527 0.61133c0-1.3188-0.83333-2.5789-1.541-3.145s-1.3044-0.77077-1.865-0.93896a3.5004 3.5004 0 0 0-1.0061-0.14676h-7.6698c-0.88765 0-2.1814 0.27501-3.1585 1.2521-0.97712 0.97712-1.2537 2.2724-1.2537 3.16v28.211c0 1.1548 0.60653 2.3294 1.2537 2.9766 0.64713 0.64713 1.2749 0.95166 1.8593 1.1854a3.5004 3.5004 0 0 0 0.016 6e-3c2.2009 0.86701 4.5939 1.5866 7.1794 2.1683 8.8299 1.9898 16.707 3.0055 23.684 3.0055 13.523 0 25.109-3.2781 34.369-9.9766l-2e-3 4e-3c10.428-7.5237 15.875-18.62 15.875-32.053 0-9.1515-3.0809-17.225-9.0956-23.51a3.5004 3.5004 0 0 0-4e-3 -4e-3c-4.8153-5.0187-12.056-9.5932-21.781-14.082a3.5004 3.5004 0 0 0-8e-3 -4e-3l-12.14-5.5681-2e-3 -2e-3c-6.5629-3.0156-11.17-5.8792-13.662-8.2166l-2e-3 -2e-3c-3.8342-3.625-5.5661-7.6288-5.5661-12.793 0-5.3401 1.8487-9.0604 6.0958-12.272a3.5004 3.5004 0 0 0 2e-3 0c3.8626-2.9231 8.4849-4.4044 14.32-4.4044 5.3994 0 10.333 1.0467 14.967 2.9533l3.498 19.633-0.0527-0.6134c0 0.97262 0.50005 2.4466 1.541 3.2794 1.0409 0.83277 2.1002 0.9493 2.8711 0.9493h7.3045c0.88765 0 2.1814-0.27501 3.1585-1.2521 0.97712-0.97712 1.2537-2.2724 1.2537-3.16v-28.301c0-0.97262-0.44155-2.2559-1.2537-3.068-0.81211-0.81212-1.7284-1.1286-2.4727-1.2774l0.31832 0.0801c-2.4909-0.74727-4.808-1.3748-6.9593-1.881a3.5004 3.5004 0 0 0-0.01-2e-3c-7.8457-1.8202-15.541-2.7383-23.067-2.7383h-5.1e-4zm344.5 1.8262c-3.6749 0-7.1621 1.321-9.7379 3.8163-2.5564 2.4746-3.8969 5.9607-3.8969 9.6351 1e-5 3.6749 1.3302 7.1618 3.8556 9.6873a3.5004 3.5004 0 0 0 0.0822 0.078c2.5846 2.4231 6.0465 3.6856 9.6971 3.6856 3.6506 0 7.1109-1.2706 9.6464-3.7243a3.5004 3.5004 0 0 0 0.041-0.0393c2.5254-2.5254 3.8556-6.0129 3.8556-9.6878 0-3.6643-1.3346-7.1396-3.8773-9.6128-2.5238-2.5126-6.0007-3.838-9.666-3.838zm-274.04 27.297c-1.926 0-3.0671 0.97679-3.9357 1.8454a3.5004 3.5004 0 0 0-8e-3 0.0103l-23.92 24.101 0.20723-0.1912c-0.86372 0.74034-1.8614 2.0275-1.8614 3.7538v0.91209c0 0.85722 0.26852 2.1299 1.2304 3.0918 0.96189 0.9619 2.233 1.2304 3.0902 1.2304h8.277v53.832c0 5.8528 2.1917 11.122 6.3459 14.912 4.1016 3.7418 9.3959 5.6601 15.231 5.6601 5.1774 0 10.276-0.82315 15.244-2.4572a3.5004 3.5004 0 0 0 0.0134-4e-3c3.91-1.3033 8.2391-3.6331 13.17-6.9339 1.3948-0.8781 2.4685-3.3541 2.1032-4.9976a3.5004 3.5004 0 0 0-0.29869-0.83044l-2.373-4.656a3.5004 3.5004 0 0 0-1.1756-1.3224c-0.55593-0.37061-1.1564-0.61348-1.7327-0.75757a3.5004 3.5004 0 0 0-0.27337-0.0569c-1.236-0.206-2.9978 0.28684-3.9631 1.2521l0.23823-0.21859c-2.8732 2.3862-6.6666 3.6659-11.914 3.6659-3.332 0-5.135-0.81237-6.3572-2.1838-1.2222-1.3715-2.1037-3.7829-2.1037-7.7365v-47.168h22.246c0.94598 0 2.3419-0.36957 3.2753-1.3963s1.1369-2.2428 1.1369-3.1078v-6.6657c0-0.86505-0.20349-2.0806-1.1369-3.1073-0.93339-1.0267-2.3293-1.3968-3.2753-1.3968h-22.246v-14.576c0-0.81203-0.13472-1.9164-0.99581-2.9688-0.8611-1.0524-2.3375-1.5353-3.3243-1.5353zm349.34 15.703c-13.537 0-24.938 4.5466-33.324 13.527a3.5004 3.5004 0 0 0 0 2e-3c-8.1232 8.7176-12.168 20.211-12.168 33.791 0 13.715 3.8186 25.061 11.627 33.342 7.9546 8.5499 19.238 12.793 32.955 12.793 13.371 0 24.708-4.5913 33.141-13.617a3.5004 3.5004 0 0 0 0.012-0.0119c8.163-8.8214 12.252-20.279 12.252-33.691 0-13.884-3.7394-25.283-11.443-33.523a3.5004 3.5004 0 0 0 0-5.2e-4 3.5004 3.5004 0 0 0 0-5.1e-4 3.5004 3.5004 0 0 0 0-5.2e-4 3.5004 3.5004 0 0 0 0-5.2e-4c-7.9102-8.4465-19.22-12.61-33.047-12.61zm-2.3745 15.125c8.4327 0 13.856 3.3333 17.894 11.082a3.5004 3.5004 0 0 0 0.01 0.0134c3.1811 6.0331 4.8906 14.01 4.8906 24.022 0 10.145-1.8693 17.349-4.9883 21.73-3.1191 4.3818-7.3656 6.4492-14.063 6.4492-4.2618 0-7.6179-0.96415-10.395-2.7988-8.1107-5.3742-12.488-15.755-12.488-32.594 0-8.2874 1.4895-14.724 4.1915-19.44a3.5004 3.5004 0 0 0 0-5.2e-4 3.5004 3.5004 0 0 0 0-2e-3 3.5004 3.5004 0 0 0 0-2e-3c3.3771-5.9099 7.833-8.4605 14.945-8.4605zm86.074-15.125c-8.5134 0-16.116 2.2474-22.404 6.7774a3.5004 3.5004 0 0 0 0 2e-3c-7.2639 5.2461-11.31 12.56-11.31 20.914 0 5.892 1.9901 11.345 5.7832 15.82 3.793 4.4748 9.2599 8.0056 16.227 10.799l8.3395 3.3554c2.3558 1.0604 4.0105 1.8136 4.8752 2.2169 4.6471 2.2209 6.2244 4.6196 6.2244 8.707 0 3.8102-0.971 5.9432-2.7693 7.4554s-4.9334 2.5564-9.7989 2.5564c-3.7328 0-7.3051-0.83399-10.836-2.3611l-2.7109-13.889 0.066 0.66973c0-1.0456-0.6284-2.6046-1.6934-3.3791s-2.0537-0.85163-2.8127-0.85163h-5.7496c-0.771 0-1.8301 0.11651-2.8711 0.9493-1.0409 0.83279-1.5431 2.3089-1.5431 3.2814v21.637c0 0.922 0.3472 2.1469 1.1385 3.0174s1.7886 1.2602 2.5879 1.4201c8.5207 2.8439 16.098 4.3574 22.78 4.3574 9.2454 0 17.489-2.4624 24.32-7.414v-2e-3c7.687-5.5303 11.861-13.524 11.861-22.832 0-5.6389-2.1186-10.911-6.0327-15.26-3.9141-4.349-9.5118-7.8725-16.684-10.805a3.5004 3.5004 0 0 0 0-5.2e-4 3.5004 3.5004 0 0 0 0-5.1e-4 3.5004 3.5004 0 0 0 0-5.2e-4 3.5004 3.5004 0 0 0 0-5.2e-4l-7.8517-3.1952a3.5004 3.5004 0 0 0 0-5.2e-4 3.5004 3.5004 0 0 0 0-5.1e-4 3.5004 3.5004 0 0 0 0-5.2e-4 3.5004 3.5004 0 0 0 0-5.2e-4c-4.2121-1.7076-7.1746-3.6012-8.9338-5.4198-1.7591-1.8186-2.3942-3.4028-2.3942-5.3046 0-1.3978 0.3025-2.5499 0.9276-3.6778 1.8531-3.2938 4.7648-4.8731 10.545-4.8731 2.9853 0 5.5316 0.54896 7.8357 1.4495l2.7972 13.56-0.072-0.70693c0 1.3189 0.8334 2.5784 1.541 3.1445 0.7077 0.5661 1.3048 0.76923 1.8655 0.93741a3.5004 3.5004 0 0 0 1.0056 0.14831h5.7521c0.759 0 1.7457-0.0772 2.8107-0.85163 1.065-0.7745 1.6934-2.333 1.6934-3.3786v-21.09c0-0.98688-0.4334-2.2944-1.2758-3.1368-0.8321-0.83204-1.788-1.1545-2.572-1.3007-7.0338-2.2593-13.93-3.4432-20.65-3.4432zm-368.45 0.8201a3.5004 3.5004 0 0 0-0.4961 0.0351c-0.51844 0.0741-0.89808 0.1197-1.5234 0.32815l0.53123-0.13281-22.459 3.7445 0.57619-0.0491c-0.97262 0-2.4487 0.50211-3.2814 1.5431s-0.9493 2.1002-0.9493 2.8711v4.2912c0 0.88765 0.275 2.1808 1.2521 3.158 0.97711 0.97712 2.2724 1.2542 3.16 1.2542l-0.39843-0.0238 11.322 1.3007v47.627c0 7.8275 2.7734 14.65 8.1623 19.557l4e-3 4e-3c5.1801 4.758 12.005 7.1272 19.802 7.1272 8.7179 0 17.092-2.9439 24.971-8.3184l0.20309 2.959a3.5004 3.5004 0 0 0 6e-3 0.076c0.0737 0.81092 0.30809 1.9116 1.2852 2.8887 0.97712 0.97712 2.5191 1.2965 3.5 1.1875l-0.15606 0.0139 27.844-1.8262a3.5004 3.5004 0 0 0 0.20515-0.0196c0.88462-0.11057 2.0857-0.60855 2.8474-1.5606 0.76166-0.95207 0.9493-2.0338 0.9493-2.8262v-4.2907c0-0.86505-0.20504-2.0811-1.1384-3.1078-0.9334-1.0267-2.3298-1.3963-3.2758-1.3963l0.37724 0.0217-11.301-1.2227v-70.799c0-0.88765-0.27656-2.1834-1.2537-3.1605-0.97711-0.97711-2.2708-1.2537-3.1585-1.2537h-5.2048a3.5004 3.5004 0 0 0-0.38654 0.0212c-0.61849 0.0687-1.0721 0.12203-1.6485 0.26614l0.27131-0.0568-22.367 3.744 0.57825-0.0486c-0.92201 0-2.3058 0.37194-3.2189 1.3865-0.91309 1.0145-1.1033 2.1984-1.1033 3.0277v4.2907c0 0.94598 0.36957 2.3403 1.3963 3.2737 1.0267 0.93339 2.2423 1.1384 3.1073 1.1384l-0.40204-0.0232 11.236 1.3007v50.074c-5.621 3.3184-10.903 4.916-15.947 4.916-5.2626 0-8.583-1.2564-10.677-3.3398s-3.3497-5.3718-3.3497-10.598v-54.959c0-0.88765-0.27707-2.1829-1.2542-3.16-0.97711-0.9771-2.2724-1.2542-3.16-1.2542zm211.83 0a3.5004 3.5004 0 0 0-0.43357 0.0274c-0.55816 0.0698-0.99965 0.13246-1.5095 0.25993l0.27337-0.0568-22.459 3.7445 0.57619-0.0491c-0.97262 0-2.4487 0.5021-3.2814 1.5431-0.83275 1.041-0.94878 2.1002-0.94878 2.8711v4.2912c0 0.88764 0.27449 2.1808 1.2516 3.158s2.2729 1.2542 3.1605 1.2542l-0.39843-0.0238 11.322 1.3012v57.052l-10.808 1.0588 0.34158-0.0176c-0.91807 0-2.2364 0.28512-3.2287 1.2774-0.99234 0.99233-1.2754 2.3081-1.2754 3.2262v4.6566c0 0.94598 0.37009 2.3419 1.3968 3.2752 1.0267 0.93339 2.2423 1.1384 3.1073 1.1384h42.178c0.8651 0 2.0806-0.20503 3.1073-1.1384s1.3963-2.3293 1.3963-3.2752v-4.6566c0-0.91806-0.2831-2.2338-1.2754-3.2262-0.9923-0.99234-2.3101-1.2774-3.2282-1.2774l0.3669 0.0196-9.9219-1.0433v-70.977c0-0.88762-0.2766-2.1829-1.2537-3.16-0.9771-0.97713-2.2724-1.2542-3.16-1.2542z" color="#000000" style="paint-order:markers fill stroke"/>
   <path d="m736.32 248.56c-0.82679 0-1.433 0.16778-2.0195 0.36329l0.55862-0.13695-23.555 3.7424 0.5488-0.0429c-1.3188 0-2.5763 0.83334-3.1424 1.541-0.56611 0.70764-0.77129 1.3065-0.93948 1.8671a3.5004 3.5004 0 0 0-0.14883 1.0041v4.2907c0 0.88765 0.27707 2.1834 1.2542 3.1605 0.97712 0.97712 2.2724 1.2537 3.16 1.2537l-0.36897-0.0196 12.388 1.3146v106.04l-12.324 1.08 0.30437-0.014c-0.94598 0-2.3419 0.37009-3.2752 1.3968-0.9334 1.0267-1.139 2.2422-1.139 3.1073v4.656c0 0.88764 0.27707 2.1829 1.2542 3.16 0.97712 0.9771 2.2724 1.2521 3.16 1.2521h46.377c0.88764 0 2.1829-0.27502 3.16-1.2521 0.97712-0.97711 1.2542-2.2724 1.2542-3.16v-4.656c0-0.88765-0.27658-2.1143-1.139-3.0629s-2.0464-1.3358-2.9254-1.4237a3.5004 3.5004 0 0 0-0.047-4e-3l-12.504-1.0817v-119.96c0-0.88765-0.27656-2.1829-1.2537-3.16-0.9771-0.97712-2.2724-1.2542-3.16-1.2542zm60.115 0c-0.82678 0-1.435 0.16778-2.0216 0.36329l0.55862-0.13695-23.555 3.7424 0.5488-0.0429c-1.3188 0-2.5763 0.83334-3.1424 1.541-0.56611 0.70764-0.77128 1.3065-0.93947 1.8671a3.5004 3.5004 0 0 0-0.14831 1.0041v4.2907c1e-5 0.88765 0.27656 2.1834 1.2537 3.1605 0.97712 0.97712 2.2724 1.2537 3.16 1.2537l-0.36897-0.0196 12.389 1.3146v106.04l-12.324 1.08 0.30437-0.014c-0.94598 0-2.3419 0.37009-3.2752 1.3968-0.9334 1.0267-1.1384 2.2422-1.1384 3.1073v4.656c1e-5 0.88764 0.27655 2.1829 1.2537 3.16 0.97712 0.9771 2.2724 1.2521 3.16 1.2521h46.377c0.88764 0 2.1834-0.27502 3.1605-1.2521 0.97712-0.97711 1.2537-2.2724 1.2537-3.16v-4.656c0-0.88765-0.27607-2.1143-1.1384-3.0629s-2.0469-1.3358-2.9259-1.4237a3.5004 3.5004 0 0 0-0.047-4e-3l-12.504-1.0817v-119.96c0-0.88765-0.27707-2.1829-1.2542-3.16-0.97711-0.97712-2.2724-1.2542-3.16-1.2542zm60.113 0c-0.82678 0-1.433 0.16778-2.0195 0.36329l0.55656-0.13695-23.555 3.7424 0.54881-0.0429c-0.97261 0-2.4461 0.50004-3.2789 1.541-0.83276 1.041-0.9493 2.1002-0.9493 2.8711v4.2907c0 0.86505 0.20297 2.0811 1.1364 3.1078s2.3298 1.3984 3.2758 1.3984l-0.34778-0.0176 12.367 1.2361v106.04l-10.899 1.0583 0.34003-0.0155c-0.94598 0-2.3419 0.37009-3.2753 1.3968-0.9334 1.0267-1.1389 2.2422-1.1389 3.1073v4.656c0 0.88764 0.27706 2.1829 1.2542 3.16 0.97712 0.9771 2.2724 1.2521 3.16 1.2521h41.904c0.88764 0 2.1829-0.27502 3.16-1.2521 0.97712-0.97711 1.2521-2.2724 1.2521-3.16v-4.656c0-0.86505-0.20556-2.0806-1.139-3.1073-0.93339-1.0267-2.3272-1.3968-3.2732-1.3968l0.37672 0.0196-9.5663-1.0372v-53.662c0.80772-0.3766 1.6189-0.75879 2.7559-1.0836a3.5004 3.5004 0 0 0 0.047-0.014c5.4215-1.6323 10.126-2.4081 14.054-2.4081 5.1375 0 8.2785 1.3446 10.43 3.8339s3.5078 6.6229 3.5078 12.844v40.48l-9.6583 1.047 0.37672-0.0196c-0.94598 0-2.3398 0.36957-3.2732 1.3963s-1.139 2.2428-1.139 3.1078v4.656c0 0.88764 0.27706 2.1829 1.2542 3.16 0.97712 0.9771 2.2703 1.2521 3.158 1.2521h40.992c0.88764 0 2.1829-0.27502 3.16-1.2521 0.97712-0.97711 1.2521-2.2724 1.2521-3.16v-4.656c0-0.86505-0.20504-2.0811-1.1384-3.1078-0.9334-1.0267-2.3277-1.3963-3.2737-1.3963l0.36535 0.0196-9.9198-1.0449v-45.961c0-9.5586-2.1337-17.282-6.9376-22.666-4.8039-5.384-12.038-7.9494-20.756-7.9494-8.3899 0-16.839 2.6273-25.258 7.4274v-50.851c0-0.88765-0.27707-2.1834-1.2542-3.1605-0.97711-0.97712-2.2724-1.2537-3.16-1.2537zm202.73 0c-0.8268 0-1.433 0.16779-2.0195 0.36329l0.5565-0.13695-23.555 3.7424 0.5509-0.0429c-1.3188 0-2.5784 0.83532-3.1445 1.5431-0.5662 0.70774-0.7713 1.3044-0.9395 1.865a3.5004 3.5004 0 0 0-0.1468 1.0041v4.2907c0 0.88761 0.275 2.1834 1.2521 3.1605s2.2725 1.2537 3.1601 1.2537l-0.369-0.0196 12.389 1.3146v106.04l-12.324 1.08 0.3044-0.014c-0.946 0-2.3398 0.37007-3.2732 1.3968-0.9334 1.0267-1.139 2.2423-1.139 3.1073v4.656c0 0.88761 0.275 2.1829 1.2521 3.16 0.9771 0.97713 2.2725 1.2521 3.1601 1.2521h46.379c0.8877 0 2.1809-0.27504 3.158-1.2521 0.9772-0.97709 1.2542-2.2723 1.2542-3.16v-4.656c0-0.88768-0.2761-2.1143-1.1385-3.0629-0.8624-0.94859-2.0469-1.3358-2.9259-1.4237a3.5004 3.5004 0 0 0-0.047-4e-3l-12.504-1.0816v-119.96c0-0.88761-0.2765-2.1829-1.2536-3.16-0.9771-0.97714-2.2724-1.2542-3.16-1.2542zm99.311 0c-0.8267 0-1.4329 0.16779-2.0195 0.36329l0.5566-0.13695-23.555 3.7424 0.5504-0.0429c-0.922 0-2.3054 0.37192-3.2184 1.3865-0.9131 1.0146-1.1038 2.1964-1.1038 3.0256v4.2907c0 0.91805 0.283 2.2364 1.2753 3.2287 0.9923 0.99235 2.3107 1.2774 3.2288 1.2774l-0.3499-0.0176 12.369 1.2438v30.914c-3.7192-0.63575-7.1938-1.0723-10.193-1.0723-14.264 0-26.434 5.1524-35.631 15.197a3.5004 3.5004 0 0 0-0.012 0.014c-8.8025 9.7154-13.231 22.066-13.231 36.402 0 10.736 2.9733 20.311 8.9085 28.291 6.5748 8.8328 15.854 13.553 26.727 13.553 8.2782 0 16.383-2.8031 24.193-7.908l0.1582 2.5275a3.5004 3.5004 0 0 0 0.01 0.0977c0.074 0.81089 0.3081 1.9116 1.2852 2.8887 0.9771 0.97714 2.5191 1.2945 3.5 1.1855l-0.1581 0.0155 27.846-1.8262a3.5004 3.5004 0 0 0 0.1582-0.0134c0.8466-0.0941 1.9944-0.484 2.8298-1.4123 0.8354-0.92831 1.1038-2.1235 1.1038-2.9807v-4.2907c0-0.91806-0.2831-2.2364-1.2754-3.2287s-2.3107-1.2754-3.2288-1.2754l0.3788 0.0217-11.211-1.2206v-119.83c0-0.94595-0.3696-2.3418-1.3963-3.2752-1.0267-0.93341-2.2429-1.139-3.1079-1.139zm-23.925 63.695c2.2603 0 5.0974 0.35168 8.4393 1.0997 1.4712 0.34344 2.4434 0.80353 3.2148 1.2831v52.024c-4.7049 2.8142-9.7449 4.2344-15.396 4.2344-7.2659 0-11.874-2.552-15.349-8.3442a3.5004 3.5004 0 0 0-0.016-0.0233c-2.9174-4.7739-4.5078-11.193-4.5078-19.447 0-8.9064 1.9563-15.998 5.6974-21.59v-4e-3c4.306-6.3487 9.8381-9.2325 17.914-9.2325zm-654-60.316c-5.7575 5e-5 -11.279 0.84423-16.511 2.5446a3.5004 3.5004 0 0 0-8e-3 2e-3c-8.1824 2.6838-14.981 7.31-20.092 13.748a3.5004 3.5004 0 0 0-6e-3 8e-3c-5.262 6.6608-7.9649 14.51-7.9649 23.076 0 8.7105 3.3555 16.582 9.6976 22.924 4.8347 4.8347 11.847 9.2655 21.08 13.57l12.324 5.75c12.979 6.0855 18.429 13.084 18.429 21.752 0 6.4292-2.2507 10.767-7.3437 14.285a3.5004 3.5004 0 0 0-8e-3 4e-3c-4.5079 3.129-10.143 4.762-17.266 4.762-6.9494 0-12.205-0.98155-15.844-2.5823l-3.5352-19.91 0.0548 0.61134c0-1.3188-0.83541-2.5768-1.543-3.143-0.70765-0.56612-1.3044-0.7713-1.865-0.93948a3.5004 3.5004 0 0 0-1.0056-0.14831h-7.6683c-0.88763 0-2.1829 0.27706-3.16 1.2542-0.97712 0.97711-1.2542 2.2724-1.2542 3.16v28.209c0 1.1548 0.60706 2.331 1.2542 2.9781s1.2749 0.95218 1.8593 1.186a3.5004 3.5004 0 0 0 0.0176 6e-3c2.2009 0.86703 4.5944 1.5861 7.1799 2.1678l-2e-3 -2e-3c8.8299 1.9898 16.709 3.0076 23.685 3.0076 13.521 0 25.106-3.2777 34.365-9.9746l4e-3 -2e-3c10.425-7.5237 15.873-18.62 15.873-32.051 0-9.1515-3.0808-17.223-9.0956-23.508a3.5004 3.5004 0 0 0-4e-3 -4e-3c-4.8153-5.0187-12.058-9.5952-21.783-14.084a3.5004 3.5004 0 0 0-8e-3 -2e-3l-12.138-5.5686-2e-3 -2e-3c-6.567-3.0175-11.177-5.8867-13.668-8.2248-8.2e-4 -7.6e-4 -3e-3 -1e-3 -4e-3 -2e-3 -3.8283-3.6229-5.5609-7.6248-5.5609-12.785 0-5.3401 1.8508-9.0599 6.0978-12.271a3.5004 3.5004 0 0 0 2e-3 0c3.8626-2.9231 8.4849-4.4044 14.32-4.4044 5.399 0 10.331 1.0465 14.965 2.9528l3.5 19.633-0.0548-0.61495c0 0.97262 0.50211 2.4482 1.5431 3.2809 1.041 0.83276 2.1002 0.9493 2.8711 0.9493h7.3029c0.88765 0 2.1829-0.27656 3.16-1.2537 0.97711-0.97712 1.2537-2.2708 1.2537-3.1585v-28.303c0-0.97262-0.44155-2.2564-1.2537-3.0686-0.81212-0.81212-1.7284-1.1265-2.4727-1.2754l0.31833 0.0801c-2.4909-0.74728-4.8075-1.3743-6.9588-1.8805a3.5004 3.5004 0 0 0-0.0119-2e-3c-7.8459-1.8202-15.539-2.7383-23.066-2.7383zm186.02 44.824v5.2e-4c-13.076 0-24.101 5.331-31.98 15.508-5.7e-4 7.4e-4 -1e-3 1e-3 -2e-3 2e-3 -7.1976 9.2315-10.774 20.665-10.774 33.82 0 12.883 3.7186 23.681 11.258 31.694 7.6866 8.2833 18.425 12.433 31.316 12.433 11.628 0 23.096-3.8315 34.18-11.223 1.3939-0.87923 2.4667-3.3533 2.1017-4.9961a3.5004 3.5004 0 0 0-0.38861-0.99581l-2.6469-4.5666a3.5004 3.5004 0 0 0-0.55242-0.71882c-0.0451-0.0451-0.0472-0.0548-0.0196-0.0134a3.5004 3.5004 0 0 0-0.97049-0.971c-0.83799-0.55865-2.2461-0.77049-3.1993-0.49816-0.95313 0.27233-1.4777 0.73772-1.8572 1.1172l0.62064-0.49196c-6.3085 3.9428-12.904 5.8591-20.057 5.8591-8.909 0-15.024-2.8848-19.562-8.9121l-2e-3 -4e-3c-3.435-4.5971-5.4818-10.826-6.1366-18.686h50.078c0.88765 0 2.1808-0.27655 3.158-1.2537 0.97712-0.97711 1.2542-2.2708 1.2542-3.1585l-0.0238 0.40824c0.25834-2.1959 0.3886-4.3403 0.3886-6.4337 0-11.417-2.9072-20.805-9.033-27.551a3.5004 3.5004 0 0 0-4e-3 -4e-3c-6.3519-6.9732-15.708-10.365-27.146-10.365zm-1.7343 15.309c5.3328 0 8.4446 1.5624 10.738 4.9139 1.9508 2.8504 3.1503 7.5123 3.3259 13.832h-30.463c0.2695-1.6934 0.42351-3.3561 0.8847-5.102 1.3052-4.9429 3.294-8.3002 5.7676-10.427 2.4736-2.1271 5.5261-3.2168 9.7462-3.2168zm-82.238-15.309c-8.1351 0-15.993 2.5521-23.432 7.2657v-2.0293c0-0.88765-0.27707-2.1834-1.2542-3.1605-0.97711-0.97712-2.2724-1.2537-3.16-1.2537h-5.2028a3.5004 3.5004 0 0 0-0.38706 0.0217c-0.61847 0.0687-1.0721 0.1215-1.6485 0.26561l0.27181-0.0568-22.368 3.744 0.57619-0.0486c-1.3188 0-2.5763 0.83333-3.1424 1.541s-0.77129 1.3065-0.93948 1.8671a3.5004 3.5004 0 0 0-0.14831 1.0041v4.2912c0 0.88765 0.27656 2.1829 1.2537 3.16 0.97712 0.97712 2.2729 1.2537 3.1605 1.2537l-0.40256-0.0233 11.237 1.3007v102.88l-10.811 1.0583 0.34158-0.0176c-0.88765 0-2.1829 0.27655-3.16 1.2537-0.97712 0.97711-1.2537 2.2708-1.2537 3.1585v4.748c0 0.88765 0.27655 2.1829 1.2537 3.16 0.97711 0.97712 2.2724 1.2521 3.16 1.2521h44.461c0.86505 0 2.0806-0.2035 3.1073-1.1369 1.0267-0.93339 1.3963-2.3293 1.3963-3.2753v-4.748c0-0.94598-0.36955-2.3403-1.3963-3.2737-1.0267-0.93339-2.2423-1.1384-3.1073-1.1384l0.31058 0.0139-12.149-1.0821v-29.612c3.7196 0.63588 7.1934 1.0702 10.193 1.0702 14.482 0 26.72-5.0704 35.814-15.016a3.5004 3.5004 0 0 0 0.0119-0.0114c8.7532-9.6677 13.139-22.081 13.139-36.586 0-10.906-2.9652-20.521-8.9219-28.399-6.5818-8.7717-15.887-13.445-26.805-13.445zm-8.0331 19.416c7.2746 0 11.886 2.536 15.355 8.2656a3.5004 3.5004 0 0 0 0.0176 0.0253c2.9037 4.6987 4.4984 11.115 4.4984 19.433 0 4.6548-0.54676 8.8657-1.6056 12.657-1.8105 6.4498-4.5663 10.941-8.1153 13.851s-8.0039 4.4101-13.895 4.4101c-5.8483 0-9.5808-1.0746-11.654-2.4546v-52.039c4.6386-2.7497 9.6787-4.1486 15.399-4.1486zm408.57-19.416c-13.537 0-24.938 4.5466-33.325 13.527a3.5004 3.5004 0 0 0-2e-3 4e-3c-8.1232 8.7176-12.168 20.211-12.168 33.791 0 13.715 3.8191 25.061 11.627 33.342 7.9546 8.5499 19.237 12.793 32.955 12.793 13.371 0 24.708-4.5913 33.141-13.617a3.5004 3.5004 0 0 0 0.012-0.0134c8.1631-8.8214 12.252-20.279 12.252-33.691 0-13.884-3.7379-25.282-11.442-33.521a3.5004 3.5004 0 0 0 0-5.1e-4 3.5004 3.5004 0 0 0 0-5.2e-4 3.5004 3.5004 0 0 0 0-5.2e-4 3.5004 3.5004 0 0 0 0-5.1e-4c-7.9102-8.4465-19.222-12.611-33.049-12.611zm-2.3735 15.127h5.2e-4c8.4324 1.5e-4 13.856 3.3314 17.894 11.08a3.5004 3.5004 0 0 0 8e-3 0.016c3.1811 6.0331 4.8906 14.009 4.8906 24.021 0 10.145-1.8693 17.347-4.9883 21.728-3.119 4.3818-7.3635 6.4513-14.061 6.4513-4.2618 0-7.6195-0.96414-10.396-2.7988-8.1107-5.3742-12.489-15.755-12.489-32.594 0-8.2874 1.4916-14.724 4.1935-19.439a3.5004 3.5004 0 0 0 2e-3 -4e-3c3.377-5.9098 7.8328-8.4608 14.945-8.461z" color="#000000" style="paint-order:markers fill stroke"/>
  </g>
  <path d="m935.14 405.49c-0.8268 0-1.433 0.16778-2.0195 0.36328l0.5566-0.13694-23.553 3.744 0.5488-0.045c-0.922 0-2.3058 0.37244-3.2189 1.387-0.9131 1.0145-1.1033 2.1979-1.1033 3.0272v4.2912c0 0.91808 0.2851 2.2344 1.2774 3.2267 0.9923 0.99232 2.3081 1.2769 3.2262 1.2769l-0.3494-0.0176 12.371 1.2444v30.914c-3.7197-0.63588-7.1956-1.0702-10.195-1.0702-14.264 0-26.434 5.1508-35.631 15.195a3.5004 3.5004 0 0 0-0.011 0.0134c-8.8025 9.7153-13.231 22.066-13.231 36.402 0 10.736 2.9734 20.312 8.9085 28.291a3.5004 3.5004 0 0 0 0 2e-3c6.5748 8.8328 15.854 13.551 26.726 13.551 8.2788 0 16.384-2.803 24.195-7.9086l0.1587 2.5275a3.5004 3.5004 0 0 0 0.01 0.0977c0.074 0.81093 0.3081 1.9116 1.2852 2.8887 0.9771 0.97713 2.5191 1.2965 3.5 1.1875l-0.156 0.0139 27.844-1.8262a3.5004 3.5004 0 0 0 0.1581-0.014c0.8466-0.0941 1.9964-0.48349 2.8318-1.4118 0.8355-0.92831 1.1033-2.1235 1.1033-2.9807v-4.2907c0-0.91808-0.2846-2.2344-1.2769-3.2267s-2.3086-1.2774-3.2267-1.2774l0.3768 0.0217-11.211-1.2211v-119.83c0-0.94599-0.3701-2.3419-1.3968-3.2752-1.0268-0.93338-2.2423-1.1384-3.1073-1.1384zm-23.92 63.695c2.2603 0 5.0974 0.35168 8.4393 1.0997 1.4728 0.3438 2.4453 0.805 3.2169 1.2852v52.022c-4.7055 2.8151-9.7456 4.2344-15.398 4.2344-7.2659 1e-5 -11.875-2.5515-15.35-8.3437a3.5004 3.5004 0 0 0-0.013-0.0232c-2.9174-4.7739-4.5078-11.193-4.5078-19.447 0-8.9118 1.9596-16.006 5.7051-21.6 1e-3 -2e-3 4e-4 -4e-3 0-6e-3 4.3048-6.3401 9.8361-9.2206 17.906-9.2206zm-262.57-60.316c-5.7573 1e-4 -11.277 0.8448-16.509 2.5451a3.5004 3.5004 0 0 0-0.01 2e-3c-8.1824 2.6838-14.981 7.3121-20.092 13.75a3.5004 3.5004 0 0 0-6e-3 6e-3c-5.262 6.6608-7.9649 14.51-7.9649 23.076 0 8.7105 3.355 16.582 9.6971 22.924 4.8344 4.8344 11.848 9.2658 21.08 13.57l12.324 5.7516-4e-3 -4e-3c12.984 6.0861 18.436 13.086 18.436 21.756 0 6.4292-2.2528 10.765-7.3458 14.283a3.5004 3.5004 0 0 0-6e-3 4e-3c-4.5079 3.129-10.145 4.762-17.268 4.762-6.95 0-12.205-0.97923-15.844-2.5802l-3.5331-19.91 0.0527 0.61133c0-1.3188-0.83333-2.5789-1.541-3.145s-1.3044-0.77077-1.865-0.93896a3.5004 3.5004 0 0 0-1.0061-0.14676h-7.6698c-0.88765 0-2.1814 0.27501-3.1585 1.2521-0.97712 0.97712-1.2537 2.2724-1.2537 3.16v28.211c0 1.1548 0.60653 2.3294 1.2537 2.9766 0.64713 0.64713 1.2749 0.95166 1.8593 1.1854a3.5004 3.5004 0 0 0 0.016 6e-3c2.2009 0.86701 4.5939 1.5866 7.1794 2.1683 8.8299 1.9898 16.707 3.0055 23.684 3.0055 13.523 0 25.109-3.2781 34.369-9.9766l-2e-3 4e-3c10.428-7.5237 15.875-18.62 15.875-32.053 0-9.1515-3.0809-17.225-9.0956-23.51a3.5004 3.5004 0 0 0-4e-3 -4e-3c-4.8153-5.0187-12.056-9.5932-21.781-14.082a3.5004 3.5004 0 0 0-8e-3 -4e-3l-12.14-5.5681-2e-3 -2e-3c-6.5629-3.0156-11.17-5.8792-13.662-8.2166l-2e-3 -2e-3c-3.8342-3.625-5.5661-7.6288-5.5661-12.793 0-5.3401 1.8487-9.0604 6.0958-12.272a3.5004 3.5004 0 0 0 2e-3 0c3.8626-2.9231 8.4849-4.4044 14.32-4.4044 5.3994 0 10.333 1.0467 14.967 2.9533l3.498 19.633-0.0527-0.6134c0 0.97262 0.50005 2.4466 1.541 3.2794 1.0409 0.83277 2.1002 0.9493 2.8711 0.9493h7.3045c0.88765 0 2.1814-0.27501 3.1585-1.2521 0.97712-0.97712 1.2537-2.2724 1.2537-3.16v-28.301c0-0.97262-0.44155-2.2559-1.2537-3.068-0.81211-0.81212-1.7284-1.1286-2.4727-1.2774l0.31832 0.0801c-2.4909-0.74727-4.808-1.3748-6.9593-1.881a3.5004 3.5004 0 0 0-0.01-2e-3c-7.8457-1.8202-15.541-2.7383-23.067-2.7383h-5.1e-4zm344.5 1.8262c-3.6749 0-7.1621 1.321-9.7379 3.8163-2.5564 2.4746-3.8969 5.9607-3.8969 9.6351 0 3.6749 1.3302 7.1618 3.8556 9.6873a3.5004 3.5004 0 0 0 0.082 0.078c2.5846 2.4231 6.0465 3.6856 9.6971 3.6856s7.1109-1.2706 9.6464-3.7243a3.5004 3.5004 0 0 0 0.041-0.0393c2.5254-2.5254 3.8556-6.0129 3.8556-9.6878 0-3.6643-1.3346-7.1396-3.8773-9.6128-2.5238-2.5126-6.0007-3.838-9.666-3.838zm-274.04 27.297c-1.926 0-3.0671 0.97679-3.9357 1.8454a3.5004 3.5004 0 0 0-8e-3 0.0103l-23.92 24.101 0.20723-0.1912c-0.86372 0.74034-1.8614 2.0275-1.8614 3.7538v0.91209c0 0.85722 0.26852 2.1299 1.2304 3.0918 0.96189 0.9619 2.233 1.2304 3.0902 1.2304h8.277v53.832c0 5.8528 2.1917 11.122 6.3459 14.912 4.1016 3.7418 9.3959 5.6601 15.231 5.6601 5.1774 0 10.276-0.82315 15.244-2.4572a3.5004 3.5004 0 0 0 0.013-4e-3c3.91-1.3033 8.2391-3.6331 13.17-6.9339 1.3948-0.8781 2.4685-3.3541 2.1032-4.9976a3.5004 3.5004 0 0 0-0.2987-0.83044l-2.373-4.656a3.5004 3.5004 0 0 0-1.1756-1.3224c-0.5559-0.37061-1.1564-0.61348-1.7327-0.75757a3.5004 3.5004 0 0 0-0.2734-0.0569c-1.236-0.206-2.9978 0.28684-3.963 1.2521l0.2382-0.21859c-2.8732 2.3862-6.6666 3.6659-11.914 3.6659-3.332 0-5.135-0.81237-6.3572-2.1838-1.2222-1.3715-2.1037-3.7829-2.1037-7.7365v-47.168h22.246c0.946 0 2.3419-0.36957 3.2752-1.3963 0.9334-1.0267 1.1369-2.2428 1.1369-3.1078v-6.6657c0-0.86505-0.2035-2.0806-1.1369-3.1073-0.9333-1.0267-2.3292-1.3968-3.2752-1.3968h-22.246v-14.576c0-0.81203-0.13472-1.9164-0.99581-2.9688-0.8611-1.0524-2.3375-1.5353-3.3243-1.5353zm349.34 15.703c-13.537 0-24.938 4.5466-33.324 13.527a3.5004 3.5004 0 0 0 0 2e-3c-8.1232 8.7176-12.168 20.211-12.168 33.791 0 13.715 3.8186 25.061 11.627 33.342 7.9546 8.5499 19.238 12.793 32.955 12.793 13.371 0 24.708-4.5913 33.141-13.617a3.5004 3.5004 0 0 0 0.012-0.0119c8.163-8.8214 12.252-20.279 12.252-33.691 0-13.884-3.7394-25.283-11.443-33.523a3.5004 3.5004 0 0 0 0-5.2e-4 3.5004 3.5004 0 0 0 0-5.1e-4 3.5004 3.5004 0 0 0 0-5.2e-4 3.5004 3.5004 0 0 0 0-5.2e-4c-7.9102-8.4465-19.22-12.61-33.047-12.61zm-2.3745 15.125c8.4327 0 13.856 3.3333 17.894 11.082a3.5004 3.5004 0 0 0 0.01 0.0134c3.1811 6.0331 4.8906 14.01 4.8906 24.022 0 10.145-1.8693 17.349-4.9883 21.73-3.1191 4.3818-7.3656 6.4492-14.063 6.4492-4.2618 0-7.6179-0.96415-10.395-2.7988-8.1107-5.3742-12.488-15.755-12.488-32.594 0-8.2874 1.4895-14.724 4.1915-19.44a3.5004 3.5004 0 0 0 0-5.2e-4 3.5004 3.5004 0 0 0 0-2e-3 3.5004 3.5004 0 0 0 0-2e-3c3.3771-5.9099 7.833-8.4605 14.945-8.4605zm86.074-15.125c-8.5134 0-16.116 2.2474-22.404 6.7774a3.5004 3.5004 0 0 0 0 2e-3c-7.2639 5.2461-11.31 12.56-11.31 20.914 0 5.892 1.9901 11.345 5.7832 15.82 3.793 4.4748 9.2599 8.0056 16.227 10.799l8.3395 3.3554c2.3558 1.0604 4.0105 1.8136 4.8752 2.2169 4.6471 2.2209 6.2244 4.6196 6.2244 8.707 0 3.8102-0.971 5.9432-2.7693 7.4554s-4.9334 2.5564-9.7989 2.5564c-3.7328 0-7.3051-0.83399-10.836-2.3611l-2.7109-13.889 0.066 0.66973c0-1.0456-0.6284-2.6046-1.6934-3.3791s-2.0537-0.85163-2.8127-0.85163h-5.7496c-0.771 0-1.8301 0.11651-2.8711 0.9493-1.0409 0.83279-1.5431 2.3089-1.5431 3.2814v21.637c0 0.922 0.3472 2.1469 1.1385 3.0174s1.7886 1.2602 2.5879 1.4201c8.5207 2.8439 16.098 4.3574 22.78 4.3574 9.2454 0 17.489-2.4624 24.32-7.414v-2e-3c7.687-5.5303 11.861-13.524 11.861-22.832 0-5.6389-2.1186-10.911-6.0327-15.26-3.9141-4.349-9.5118-7.8725-16.684-10.805a3.5004 3.5004 0 0 0 0-5.2e-4 3.5004 3.5004 0 0 0 0-5.1e-4 3.5004 3.5004 0 0 0 0-5.2e-4 3.5004 3.5004 0 0 0 0-5.2e-4l-7.8517-3.1952a3.5004 3.5004 0 0 0 0-5.2e-4 3.5004 3.5004 0 0 0 0-5.1e-4 3.5004 3.5004 0 0 0 0-5.2e-4 3.5004 3.5004 0 0 0 0-5.2e-4c-4.2121-1.7076-7.1746-3.6012-8.9338-5.4198-1.7591-1.8186-2.3942-3.4028-2.3942-5.3046 0-1.3978 0.3025-2.5499 0.9276-3.6778 1.8531-3.2938 4.7648-4.8731 10.545-4.8731 2.9853 0 5.5316 0.54896 7.8357 1.4495l2.7972 13.56-0.072-0.70693c0 1.3189 0.8334 2.5784 1.541 3.1445 0.7077 0.5661 1.3048 0.76923 1.8655 0.93741a3.5004 3.5004 0 0 0 1.0056 0.14831h5.7521c0.759 0 1.7457-0.0772 2.8107-0.85163 1.065-0.7745 1.6934-2.333 1.6934-3.3786v-21.09c0-0.98688-0.4334-2.2944-1.2758-3.1368-0.8321-0.83204-1.788-1.1545-2.572-1.3007-7.0338-2.2593-13.93-3.4432-20.65-3.4432zm-368.45 0.8201a3.5004 3.5004 0 0 0-0.4961 0.0351c-0.5185 0.0741-0.8981 0.1197-1.5234 0.32815l0.5312-0.13281-22.459 3.7445 0.5762-0.0491c-0.9726 0-2.4487 0.50211-3.2815 1.5431-0.8327 1.041-0.9493 2.1002-0.9493 2.8711v4.2912c0 0.88765 0.275 2.1808 1.2522 3.158 0.9771 0.97712 2.2723 1.2542 3.16 1.2542l-0.3984-0.0238 11.322 1.3007v47.627c0 7.8275 2.7733 14.65 8.1623 19.557v4e-3c5.18 4.758 12.005 7.1272 19.802 7.1272 8.7179 0 17.092-2.9439 24.971-8.3184l0.203 2.959a3.5004 3.5004 0 0 0 0.01 0.076c0.074 0.81092 0.3081 1.9116 1.2852 2.8887 0.9772 0.97712 2.5192 1.2965 3.5001 1.1875l-0.1561 0.0139 27.844-1.8262a3.5004 3.5004 0 0 0 0.2052-0.0196c0.8846-0.11057 2.0857-0.60855 2.8473-1.5606 0.7617-0.95207 0.9493-2.0338 0.9493-2.8262v-4.2907c0-0.86505-0.205-2.0811-1.1384-3.1078-0.9334-1.0267-2.3298-1.3963-3.2758-1.3963l0.3773 0.0217-11.301-1.2227v-70.799c0-0.88765-0.2765-2.1834-1.2536-3.1605-0.9771-0.97711-2.2708-1.2537-3.1585-1.2537h-5.2048a3.5004 3.5004 0 0 0-0.3866 0.0212c-0.6185 0.0687-1.0721 0.12203-1.6485 0.26614l0.2713-0.0568-22.367 3.744 0.5783-0.0486c-0.922 0-2.3058 0.37194-3.2189 1.3865-0.9131 1.0145-1.1033 2.1984-1.1033 3.0277v4.2907c0 0.94598 0.3695 2.3403 1.3963 3.2737 1.0267 0.93339 2.2422 1.1384 3.1073 1.1384l-0.4021-0.0232 11.236 1.3007v50.074c-5.621 3.3184-10.903 4.916-15.947 4.916-5.2626 0-8.5831-1.2564-10.677-3.3398s-3.3497-5.3718-3.3497-10.598v-54.959c0-0.88765-0.277-2.1829-1.2541-3.16-0.9772-0.9771-2.2724-1.2542-3.1601-1.2542zm211.83 0a3.5004 3.5004 0 0 0-0.4336 0.0274c-0.5581 0.0698-0.9996 0.13246-1.5094 0.25993l0.2733-0.0568-22.459 3.7445 0.5761-0.0491c-0.9726 0-2.4487 0.5021-3.2814 1.5431-0.8328 1.041-0.9488 2.1002-0.9488 2.8711v4.2912c0 0.88764 0.2745 2.1808 1.2516 3.158s2.2729 1.2542 3.1605 1.2542l-0.3984-0.0238 11.322 1.3012v57.052l-10.808 1.0588 0.3416-0.0176c-0.9181 0-2.2364 0.28512-3.2288 1.2774-0.9923 0.99233-1.2754 2.3081-1.2754 3.2262v4.6566c0 0.94598 0.3701 2.3419 1.3969 3.2752 1.0267 0.93339 2.2422 1.1384 3.1073 1.1384h42.178c0.8651 0 2.0806-0.20503 3.1073-1.1384s1.3963-2.3293 1.3963-3.2752v-4.6566c0-0.91806-0.2831-2.2338-1.2754-3.2262-0.9923-0.99234-2.3101-1.2774-3.2282-1.2774l0.3669 0.0196-9.9219-1.0433v-70.977c0-0.88762-0.2766-2.1829-1.2537-3.16-0.9771-0.97713-2.2724-1.2542-3.16-1.2542z" color="#000000" fill="url(#a)" filter="url(#e)" opacity=".65" style="mix-blend-mode:normal;paint-order:markers fill stroke"/>
  <path d="m736.32 248.56c-0.82679 0-1.433 0.16778-2.0195 0.36329l0.55862-0.13695-23.555 3.7424 0.5488-0.0429c-1.3188 0-2.5763 0.83334-3.1424 1.541-0.56611 0.70764-0.77129 1.3065-0.93948 1.8671a3.5004 3.5004 0 0 0-0.14883 1.0041v4.2907c0 0.88765 0.27707 2.1834 1.2542 3.1605 0.97712 0.97712 2.2724 1.2537 3.16 1.2537l-0.36897-0.0196 12.388 1.3146v106.04l-12.324 1.08 0.30437-0.014c-0.94598 0-2.3419 0.37009-3.2752 1.3968-0.9334 1.0267-1.139 2.2422-1.139 3.1073v4.656c0 0.88764 0.27707 2.1829 1.2542 3.16 0.97712 0.9771 2.2724 1.2521 3.16 1.2521h46.377c0.88764 0 2.1829-0.27502 3.16-1.2521 0.97712-0.97711 1.2542-2.2724 1.2542-3.16v-4.656c0-0.88765-0.27658-2.1143-1.139-3.0629s-2.0464-1.3358-2.9254-1.4237a3.5004 3.5004 0 0 0-0.047-4e-3l-12.504-1.0817v-119.96c0-0.88765-0.27656-2.1829-1.2537-3.16-0.9771-0.97712-2.2724-1.2542-3.16-1.2542zm60.115 0c-0.82678 0-1.435 0.16778-2.0216 0.36329l0.55862-0.13695-23.555 3.7424 0.5488-0.0429c-1.3188 0-2.5763 0.83334-3.1424 1.541-0.56611 0.70764-0.77128 1.3065-0.93947 1.8671a3.5004 3.5004 0 0 0-0.14831 1.0041v4.2907c1e-5 0.88765 0.27656 2.1834 1.2537 3.1605 0.97712 0.97712 2.2724 1.2537 3.16 1.2537l-0.36897-0.0196 12.389 1.3146v106.04l-12.324 1.08 0.30437-0.014c-0.94598 0-2.3419 0.37009-3.2752 1.3968-0.9334 1.0267-1.1384 2.2422-1.1384 3.1073v4.656c1e-5 0.88764 0.27655 2.1829 1.2537 3.16 0.97712 0.9771 2.2724 1.2521 3.16 1.2521h46.377c0.88764 0 2.1834-0.27502 3.1605-1.2521 0.97712-0.97711 1.2537-2.2724 1.2537-3.16v-4.656c0-0.88765-0.27607-2.1143-1.1384-3.0629s-2.0469-1.3358-2.9259-1.4237a3.5004 3.5004 0 0 0-0.047-4e-3l-12.504-1.0817v-119.96c0-0.88765-0.27707-2.1829-1.2542-3.16-0.97711-0.97712-2.2724-1.2542-3.16-1.2542zm60.113 0c-0.82678 0-1.433 0.16778-2.0195 0.36329l0.55656-0.13695-23.555 3.7424 0.54881-0.0429c-0.97261 0-2.4461 0.50004-3.2789 1.541-0.83276 1.041-0.9493 2.1002-0.9493 2.8711v4.2907c0 0.86505 0.20297 2.0811 1.1364 3.1078s2.3298 1.3984 3.2758 1.3984l-0.34778-0.0176 12.367 1.2361v106.04l-10.899 1.0583 0.34003-0.0155c-0.94598 0-2.3419 0.37009-3.2753 1.3968-0.9334 1.0267-1.1389 2.2422-1.1389 3.1073v4.656c0 0.88764 0.27706 2.1829 1.2542 3.16 0.97712 0.9771 2.2724 1.2521 3.16 1.2521h41.904c0.88764 0 2.1829-0.27502 3.16-1.2521 0.97712-0.97711 1.2521-2.2724 1.2521-3.16v-4.656c0-0.86505-0.20556-2.0806-1.139-3.1073-0.93339-1.0267-2.3272-1.3968-3.2732-1.3968l0.37672 0.0196-9.5663-1.0372v-53.662c0.80772-0.3766 1.6189-0.75879 2.7559-1.0836a3.5004 3.5004 0 0 0 0.047-0.014c5.4215-1.6323 10.126-2.4081 14.054-2.4081 5.1375 0 8.2785 1.3446 10.43 3.8339s3.5078 6.6229 3.5078 12.844v40.48l-9.6583 1.047 0.37672-0.0196c-0.94598 0-2.3398 0.36957-3.2732 1.3963s-1.139 2.2428-1.139 3.1078v4.656c0 0.88764 0.27706 2.1829 1.2542 3.16 0.97712 0.9771 2.2703 1.2521 3.158 1.2521h40.992c0.88764 0 2.1829-0.27502 3.16-1.2521 0.97712-0.97711 1.2521-2.2724 1.2521-3.16v-4.656c0-0.86505-0.20504-2.0811-1.1384-3.1078-0.9334-1.0267-2.3277-1.3963-3.2737-1.3963l0.36535 0.0196-9.9198-1.0449v-45.961c0-9.5586-2.1337-17.282-6.9376-22.666-4.8039-5.384-12.038-7.9494-20.756-7.9494-8.3899 0-16.839 2.6273-25.258 7.4274v-50.851c0-0.88765-0.27707-2.1834-1.2542-3.1605-0.97711-0.97712-2.2724-1.2537-3.16-1.2537zm202.73 0c-0.8268 0-1.433 0.16779-2.0195 0.36329l0.5565-0.13695-23.555 3.7424 0.5509-0.0429c-1.3188 0-2.5784 0.83532-3.1445 1.5431-0.5662 0.70774-0.7713 1.3044-0.9395 1.865a3.5004 3.5004 0 0 0-0.1468 1.0041v4.2907c0 0.88761 0.275 2.1834 1.2521 3.1605s2.2725 1.2537 3.1601 1.2537l-0.369-0.0196 12.389 1.3146v106.04l-12.324 1.08 0.3044-0.014c-0.946 0-2.3398 0.37007-3.2732 1.3968-0.9334 1.0267-1.139 2.2423-1.139 3.1073v4.656c0 0.88761 0.275 2.1829 1.2521 3.16 0.9771 0.97713 2.2725 1.2521 3.1601 1.2521h46.379c0.8877 0 2.1809-0.27504 3.158-1.2521 0.9772-0.97709 1.2542-2.2723 1.2542-3.16v-4.656c0-0.88768-0.2761-2.1143-1.1385-3.0629-0.8624-0.94859-2.0469-1.3358-2.9259-1.4237a3.5004 3.5004 0 0 0-0.047-4e-3l-12.504-1.0816v-119.96c0-0.88761-0.2765-2.1829-1.2536-3.16-0.9771-0.97714-2.2724-1.2542-3.16-1.2542zm99.311 0c-0.8267 0-1.4329 0.16779-2.0195 0.36329l0.5566-0.13695-23.555 3.7424 0.5504-0.0429c-0.922 0-2.3054 0.37192-3.2184 1.3865-0.9131 1.0146-1.1038 2.1964-1.1038 3.0256v4.2907c0 0.91805 0.283 2.2364 1.2753 3.2287 0.9923 0.99235 2.3107 1.2774 3.2288 1.2774l-0.3499-0.0176 12.369 1.2438v30.914c-3.7192-0.63575-7.1938-1.0723-10.193-1.0723-14.264 0-26.434 5.1524-35.631 15.197a3.5004 3.5004 0 0 0-0.012 0.014c-8.8025 9.7154-13.231 22.066-13.231 36.402 0 10.736 2.9733 20.311 8.9085 28.291 6.5748 8.8328 15.854 13.553 26.727 13.553 8.2782 0 16.383-2.8031 24.193-7.908l0.1582 2.5275a3.5004 3.5004 0 0 0 0.01 0.0977c0.074 0.81089 0.3081 1.9116 1.2852 2.8887 0.9771 0.97714 2.5191 1.2945 3.5 1.1855l-0.1581 0.0155 27.846-1.8262a3.5004 3.5004 0 0 0 0.1582-0.0134c0.8466-0.0941 1.9944-0.484 2.8298-1.4123 0.8354-0.92831 1.1038-2.1235 1.1038-2.9807v-4.2907c0-0.91806-0.2831-2.2364-1.2754-3.2287s-2.3107-1.2754-3.2288-1.2754l0.3788 0.0217-11.211-1.2206v-119.83c0-0.94595-0.3696-2.3418-1.3963-3.2752-1.0267-0.93341-2.2429-1.139-3.1079-1.139zm-23.925 63.695c2.2603 0 5.0974 0.35168 8.4393 1.0997 1.4712 0.34344 2.4434 0.80353 3.2148 1.2831v52.024c-4.7049 2.8142-9.7449 4.2344-15.396 4.2344-7.2659 0-11.874-2.552-15.349-8.3442a3.5004 3.5004 0 0 0-0.016-0.0233c-2.9174-4.7739-4.5078-11.193-4.5078-19.447 0-8.9064 1.9563-15.998 5.6974-21.59v-4e-3c4.306-6.3487 9.8381-9.2325 17.914-9.2325zm-654-60.316c-5.7575 5e-5 -11.279 0.84423-16.511 2.5446a3.5004 3.5004 0 0 0-8e-3 2e-3c-8.1824 2.6838-14.981 7.31-20.092 13.748a3.5004 3.5004 0 0 0-6e-3 8e-3c-5.262 6.6608-7.9649 14.51-7.9649 23.076 0 8.7105 3.3555 16.582 9.6976 22.924 4.8347 4.8347 11.847 9.2655 21.08 13.57l12.324 5.75c12.979 6.0855 18.429 13.084 18.429 21.752 0 6.4292-2.2507 10.767-7.3437 14.285a3.5004 3.5004 0 0 0-8e-3 4e-3c-4.5079 3.129-10.143 4.762-17.266 4.762-6.9494 0-12.205-0.98155-15.844-2.5823l-3.5352-19.91 0.0548 0.61134c0-1.3188-0.83541-2.5768-1.543-3.143-0.70765-0.56612-1.3044-0.7713-1.865-0.93948a3.5004 3.5004 0 0 0-1.0056-0.14831h-7.6683c-0.88763 0-2.1829 0.27706-3.16 1.2542-0.97712 0.97711-1.2542 2.2724-1.2542 3.16v28.209c0 1.1548 0.60706 2.331 1.2542 2.9781s1.2749 0.95218 1.8593 1.186a3.5004 3.5004 0 0 0 0.0176 6e-3c2.2009 0.86703 4.5944 1.5861 7.1799 2.1678l-2e-3 -2e-3c8.8299 1.9898 16.709 3.0076 23.685 3.0076 13.521 0 25.106-3.2777 34.365-9.9746l4e-3 -2e-3c10.425-7.5237 15.873-18.62 15.873-32.051 0-9.1515-3.0808-17.223-9.0956-23.508a3.5004 3.5004 0 0 0-4e-3 -4e-3c-4.8153-5.0187-12.058-9.5952-21.783-14.084a3.5004 3.5004 0 0 0-8e-3 -2e-3l-12.138-5.5686-2e-3 -2e-3c-6.567-3.0175-11.177-5.8867-13.668-8.2248-8.2e-4 -7.6e-4 -3e-3 -1e-3 -4e-3 -2e-3 -3.8283-3.6229-5.5609-7.6248-5.5609-12.785 0-5.3401 1.8508-9.0599 6.0978-12.271a3.5004 3.5004 0 0 0 2e-3 0c3.8626-2.9231 8.4849-4.4044 14.32-4.4044 5.399 0 10.331 1.0465 14.965 2.9528l3.5 19.633-0.0548-0.61495c0 0.97262 0.50211 2.4482 1.5431 3.2809 1.041 0.83276 2.1002 0.9493 2.8711 0.9493h7.3029c0.88765 0 2.1829-0.27656 3.16-1.2537 0.97711-0.97712 1.2537-2.2708 1.2537-3.1585v-28.303c0-0.97262-0.44155-2.2564-1.2537-3.0686-0.81212-0.81212-1.7284-1.1265-2.4727-1.2754l0.31833 0.0801c-2.4909-0.74728-4.8075-1.3743-6.9588-1.8805a3.5004 3.5004 0 0 0-0.0119-2e-3c-7.8459-1.8202-15.539-2.7383-23.066-2.7383zm186.02 44.824v5.2e-4c-13.076 0-24.101 5.331-31.98 15.508-5.7e-4 7.4e-4 -1e-3 1e-3 -2e-3 2e-3 -7.1976 9.2315-10.774 20.665-10.774 33.82 0 12.883 3.7186 23.681 11.258 31.694 7.6866 8.2833 18.425 12.433 31.316 12.433 11.628 0 23.096-3.8315 34.18-11.223 1.3939-0.87923 2.4667-3.3533 2.1017-4.9961a3.5004 3.5004 0 0 0-0.38861-0.99581l-2.6469-4.5666a3.5004 3.5004 0 0 0-0.55242-0.71882c-0.0451-0.0451-0.0472-0.0548-0.0196-0.0134a3.5004 3.5004 0 0 0-0.97049-0.971c-0.83799-0.55865-2.2461-0.77049-3.1993-0.49816-0.95313 0.27233-1.4777 0.73772-1.8572 1.1172l0.62064-0.49196c-6.3085 3.9428-12.904 5.8591-20.057 5.8591-8.909 0-15.024-2.8848-19.562-8.9121l-2e-3 -4e-3c-3.435-4.5971-5.4818-10.826-6.1366-18.686h50.078c0.88765 0 2.1808-0.27655 3.158-1.2537 0.97712-0.97711 1.2542-2.2708 1.2542-3.1585l-0.0238 0.40824c0.25834-2.1959 0.3886-4.3403 0.3886-6.4337 0-11.417-2.9072-20.805-9.033-27.551a3.5004 3.5004 0 0 0-4e-3 -4e-3c-6.3519-6.9732-15.708-10.365-27.146-10.365zm-1.7343 15.309c5.3328 0 8.4446 1.5624 10.738 4.9139 1.9508 2.8504 3.1503 7.5123 3.3259 13.832h-30.463c0.2695-1.6934 0.42351-3.3561 0.8847-5.102 1.3052-4.9429 3.294-8.3002 5.7676-10.427 2.4736-2.1271 5.5261-3.2168 9.7462-3.2168zm-82.238-15.309c-8.1351 0-15.993 2.5521-23.432 7.2657v-2.0293c0-0.88765-0.27707-2.1834-1.2542-3.1605-0.97711-0.97712-2.2724-1.2537-3.16-1.2537h-5.2028a3.5004 3.5004 0 0 0-0.38706 0.0217c-0.61847 0.0687-1.0721 0.1215-1.6485 0.26561l0.27181-0.0568-22.368 3.744 0.57619-0.0486c-1.3188 0-2.5763 0.83333-3.1424 1.541s-0.77129 1.3065-0.93948 1.8671a3.5004 3.5004 0 0 0-0.14831 1.0041v4.2912c0 0.88765 0.27656 2.1829 1.2537 3.16 0.97712 0.97712 2.2729 1.2537 3.1605 1.2537l-0.40256-0.0233 11.237 1.3007v102.88l-10.811 1.0583 0.34158-0.0176c-0.88765 0-2.1829 0.27655-3.16 1.2537-0.97712 0.97711-1.2537 2.2708-1.2537 3.1585v4.748c0 0.88765 0.27655 2.1829 1.2537 3.16 0.97711 0.97712 2.2724 1.2521 3.16 1.2521h44.461c0.86505 0 2.0806-0.2035 3.1073-1.1369 1.0267-0.93339 1.3963-2.3293 1.3963-3.2753v-4.748c0-0.94598-0.36955-2.3403-1.3963-3.2737-1.0267-0.93339-2.2423-1.1384-3.1073-1.1384l0.31058 0.0139-12.149-1.0821v-29.612c3.7196 0.63588 7.1934 1.0702 10.193 1.0702 14.482 0 26.72-5.0704 35.814-15.016a3.5004 3.5004 0 0 0 0.0119-0.0114c8.7532-9.6677 13.139-22.081 13.139-36.586 0-10.906-2.9652-20.521-8.9219-28.399-6.5818-8.7717-15.887-13.445-26.805-13.445zm-8.0331 19.416c7.2746 0 11.886 2.536 15.355 8.2656a3.5004 3.5004 0 0 0 0.0176 0.0253c2.9037 4.6987 4.4984 11.115 4.4984 19.433 0 4.6548-0.54676 8.8657-1.6056 12.657-1.8105 6.4498-4.5663 10.941-8.1153 13.851s-8.0039 4.4101-13.895 4.4101c-5.8483 0-9.5808-1.0746-11.654-2.4546v-52.039c4.6386-2.7497 9.6787-4.1486 15.399-4.1486zm408.57-19.416c-13.537 0-24.938 4.5466-33.325 13.527a3.5004 3.5004 0 0 0 0 4e-3c-8.1232 8.7176-12.168 20.211-12.168 33.791 0 13.715 3.819 25.061 11.627 33.342 7.9545 8.5499 19.238 12.793 32.954 12.793 13.371 0 24.708-4.5913 33.141-13.617a3.5004 3.5004 0 0 0 0.012-0.0134c8.1631-8.8214 12.252-20.279 12.252-33.691 0-13.884-3.7379-25.282-11.442-33.521a3.5004 3.5004 0 0 0 0-5.1e-4 3.5004 3.5004 0 0 0 0-5.2e-4 3.5004 3.5004 0 0 0 0-5.2e-4 3.5004 3.5004 0 0 0 0-5.1e-4c-7.9102-8.4465-19.222-12.611-33.049-12.611zm-2.3735 15.127h5e-4c8.4324 1.5e-4 13.856 3.3314 17.894 11.08a3.5004 3.5004 0 0 0 0.01 0.016c3.1811 6.0331 4.8906 14.009 4.8906 24.021 0 10.145-1.8693 17.347-4.9883 21.728-3.119 4.3818-7.3635 6.4513-14.061 6.4513-4.2618 0-7.6195-0.96414-10.396-2.7988-8.1107-5.3742-12.489-15.755-12.489-32.594 0-8.2874 1.4915-14.724 4.1935-19.439a3.5004 3.5004 0 0 0 0-4e-3c3.377-5.9098 7.8328-8.4608 14.945-8.461z" color="#000000" fill="url(#b)" filter="url(#d)" opacity=".65" style="mix-blend-mode:normal;paint-order:markers fill stroke"/>
 </g>
</svg>
