<?xml version="1.0" encoding="UTF-8"?>
<svg width="163" height="163" version="1.1" viewBox="0 0 163 163" xmlns="http://www.w3.org/2000/svg">
 <path d="m73.479 162.84c-1.6217-0.36875-1.6046-0.66165 0.25084-4.2986 1.9842-3.8894 2.6802-8.9996 1.2257-8.9996-0.42099 0-1.2111-1.0159-1.7559-2.2576-0.46537-1.0607-0.79135-1.7263-1.7578-2.4831-1.4899-1.1667-2.3597-1.304-4.4197-1.2933-1.4037 0.0289-2.61 0.1449-4.0802 0.918l-0.64078-5.452c-0.86075-7.3236-4.927-19.863-7.8147-24.099-1.2895-1.8915-3.699-4.1109-5.3545-4.932-2.3982-1.1895-2.5966-1.4976-0.97577-1.5158 2.7516-0.0309 5.8378 2.1496 13.267 9.3735l6.271 6.0978v-6.6095l2.6437 2.0795c3.5614 2.8014 4.3798 2.625 4.3798-0.944v-3.0235l3.4524 1.4425c3.4134 1.4262 3.5986 1.4319 3.9053-1.221 0.12717-1.1002 0.33243-2.9009 0.33243-2.9009s0.08344 0.0404 2.737-0.10014c2.6662-0.14114 2.6789-0.28636 2.6789-0.28636s0.07032-1.6908 0.08176-2.9832c0.01233-1.3938 0.2609-2.6785 0.2609-2.6785s1.1689-0.0817 2.1145-0.14267c0.86199-0.0556 2.0662-0.16513 2.0662-0.16513s0.03201 0.0406 0.43109-4.5145c0.1619-1.848 0.21423-4.5208 0.21423-4.5208s0.88451-0.38245 1.2908-0.60337c0.80233-0.43625 1.505-1.8222 1.505-3.4488 0-2.1068 0.39055-2.7214 1.4668-2.3084 0.80676 0.30958 1.751 1.4582 2.0983 2.5525 0.34732 1.0943 0.81804 1.8031 1.0461 1.575 0.66096-0.66096-1.7304-7.118-3.2308-8.7239-1.9235-2.0586-3.6322-0.09505-3.9108 4.4941-0.12128 1.9976-0.57006 4.3613-1.3534 4.7649-1.2533 0.64564-1.2649 0.63398-1.2649 0.63398s0.05981 0.94347 0.13199 4.203c0.08633 3.8984-0.50306 3.8894-0.50306 3.8894s-1.2613 0.25591-2.0053 0.44413c-2.2187 0.56124-2.2394 0.56267-2.2394 0.56267s0.01024 0.0174-0.269 2.5311c-0.22859 2.0578-0.34671 2.0433-0.37184 2.0578 0 0 0.03101-0.14563-2.6382-0.19564-2.4988-0.0469-2.4973-0.0416-2.4973-0.0416s-0.0149-0.024-0.51275 2.0034c-0.49227 2.0047-0.36322 2.1042-0.44606 2.0331 0 0-0.0301 9e-3 -2.8082-0.40261-1.8419-0.27274-3.3702-0.93332-3.5118-0.93332s-0.52398 1.9597-0.52398 1.9597c-0.44008 1.849-0.35723 1.9243-0.35723 1.9243-0.03465 0.0282-0.11755 0.46453-3.1987-0.82478-1.6724-0.69981-1.9922-0.84489-1.9922-0.84489l-0.80875 1.5187-0.88883 0.57878-0.91156 0.65595s-2.2186-3.3246-5.6883-6.6743c-3.7399-3.6105-6.8509-7.3266-7.2289-7.9434-0.37801-0.6168-1.4073-5.3577-2.2874-10.535-1.4073-8.28-2.2063-10.344-6.6331-17.132-7.0768-10.852-9.8201-17.995-9.8491-25.644-0.01442-3.7963 0.81059-6.29 1.1066-6.4418 0 0 0.84006 1.4487 1.2889 4.442 1.3129 8.7548 7.3774 19.175 13.917 23.912 4.8973 3.5476 5.2663 3.5699 7.3157 0.44198 1.5254-2.328 1.4962-2.6416-0.47855-5.1521-3.7485-4.7655-1.9284-9.0471 3.6006-9.3956 3.7505-0.2364 2.6715 6.52e-4 0.06596 1.0532-1.0362 0.41861-1.7559 1.8947-1.7559 2.9605 0 2.7672 4.3582 3.6417 7.5915 1.5231 3.5351-2.3163 3.1007-7.3676-0.82116-9.5495-2.5411-1.4137-3.0609-1.3761-6.5102 0.47038-2.0617 1.1037-5.4655 3.9712-6.865 6.7734-2.6997 5.4057-2.6474 6.0802-4.625 3.0101-2.5849-4.0128-3.004-4.2767 1.414-8.758 5.3857-5.4629 10.971-16.529 14.432-28.594 2.1169-7.3797 2.5448-10.716 2.2589-17.608-0.39671-9.5627 0.87402-11.162 3.5517-4.4696 1.0669 2.6665 1.614 7.1108 1.614 13.112v9.0782l2.9237-2.0819c3.673-2.6154 7.7252-10.643 9.2277-18.28 1.0894-5.5373 1.3148-5.8621 4.0681-5.8621 2.5753 0 2.7933 0.22705 1.8716 1.9494-1.4225 2.6579 0.55925 6.8155 4.1283 8.6611 4.0031 2.0701 8.599 1.8318 9.8528-0.51097 1.5385-2.8747 1.3315-3.0737-1.9924-1.915-2.2477 0.78354-3.5027 0.8351-4.5151-0.17505-1.9122-1.908-2.0665-1.9155-1.8637-2.1703 0.11102-0.1395 0.11645-0.27384 3.8914-2.2627 1.852-0.97574 3.5118-1.9419 3.5118-2.5219 0-0.62901 2.6318-1.0546 6.5218-1.0546 7.784 0 7.7885 0.014003 3.4856 10.76-1.6699 4.1704-2.9116 7.6669-2.7592 7.77s1.7535 0.77542 3.5582 1.4941c5.1944 2.0685 8.2574 6.4304 8.2574 11.759 0 3.8427-0.53447 5.0729-3.4864 8.0248-1.9528 1.9529-3.986 3.1776-4.6222 2.7843-0.33024-0.2041-0.74512-0.31573-0.73723-0.5415 9e-3 -0.26379 0.25755-0.58906 0.5616-0.78762 3.0212-1.973 4.1484-8.7146 2.2791-13.631-1.3322-3.5039-3.2188-4.0297-7.3775-2.0563-8.3615 3.9678-7.2207 13.284 3.8356 31.324l2.5884 4.2234-2.9876-1.0415c-1.6432-0.57282-4.8062-3.0144-7.0289-5.4257-4.233-4.5922-4.4347-4.6047-5.4528-0.33592-0.75838 3.1796 2.1288 5.6815 13.857 12.007 4.1623 2.2451 7.5678 4.479 7.5678 4.9642 0 1.4273-3.3212 7.9738-4.0454 7.9738-0.36498 0-2.3132-1.602-4.3293-3.5601-2.0161-1.958-3.6657-3.1375-3.6657-2.621 0 1.8725 6.2346 14.208 7.181 14.208 2.4411 0 10.053-22.162 11.409-32.693 0.77468-6.0163 0.77579-6.0179 1.7346-2.5084 0.52767 1.9315 0.77422 8.8881 0.56367 14.131l-0.38281 9.5319-7.9344 14.047c-4.3639 7.7259-10.097 17.647-12.74 22.046-3.9793 6.6237-4.5469 8.1436-3.3015 8.8406 3.422 1.915 5.3593-0.12582 6.0683-6.3924 0.86883-7.6795 3.0613-10.495 9.1893-11.802 2.6084-0.55631 4.949-0.80498 5.2014-0.55261 0.25238 0.25237-0.73782 2.8988-2.2004 5.8811-3.2498 6.6261-5.601 17.807-6.5496 31.144l-0.71356 10.034-7.3814-0.20834c-12.859-0.36294-17.044-2.9927-15.749-9.8957 0.7503-3.9994 2.5614-5.5682 2.5614-2.2187 0 6.0703 5.777 9.1454 9.7386 5.1838 4.919-4.919 0.58033-11.423-7.6198-11.423-7.6677 0-9.9666 2.7592-11.704 14.047-0.66179 4.3007-6.5576 17.466-8.1999 18.311-0.42762 0.21989-1.5606 0.22172-2.5178 4e-3zm-5.1456-59.49c0.70961-0.70962 1.8906-0.71752 3.7124-0.0248 1.956 0.74362 2.6718 0.69921 2.6718-0.16583 0-1.3152-6.1018-8.0111-7.4944-8.0862-1.6732-0.09029-2.5799 4.2907-1.953 6.7885 0.68779 2.7404 1.4438 3.1077 3.0632 1.4884zm-7.0071-6.9862c1.1409-3.4616 1.105-3.5358-2.5084-5.1932-2.0162-0.92481-4.4881-1.573-5.457-1.7559-2.633-0.49706-2.36-0.07509-0.53935 2.1831 0.8911 1.1053 1.128 2.68 0.97661 3.1962s-0.0058 2.0122 0.32351 3.3242c0.47522 1.8934 1.1607 2.3207 3.323 2.0714 2.1062-0.24285 2.9868-1.1108 3.8817-3.8259zm24.725-4.9329c2.7266-2.6464 2.7699-2.854 1.5478-7.4234-0.70599-2.6396-0.6036-5.8468-1.5134-5.6662-4.2183 0.83737-13.038 7.0156-13.899 12.072-0.45271 2.6589-0.43632 2.972 3.734 3.946 1.955 0.4566 4.2665 0.85661 5.1456 0.63256 0.92766-0.23644 2.2855-1.2571 3.5781-2.3029 0.45388-0.36726 0.91971-0.78588 1.4067-1.2585zm-3.6895-30.81c8.8349-4.1925 12.24-18.712 5.8803-25.072-2.9386-2.9386-7.5282-3.135-9.9789-0.42695-3.0374 3.3563-0.71998 5.8772 6.8101 7.5301 3.7725 0.82808 3.8394 1.3471-0.51598 4.8435-1.8251 1.4651-3.407 1.7405-5.6329 1.2516-3.6959-0.81175-8.2203-5.0983-8.2203-7.7881 0-2.5628-1.8782-1.855-4.4541 1.6785-1.5353 2.1061-1.7353 2.9543-0.7765 3.2936 5.0328 1.7815 10.099 9.9326 8.9359 14.378-0.40194 1.537 0.01517 1.9404 2.0062 1.9404 1.3825 0 4.0582-0.73293 5.946-1.6287zm13.926-33.751c0.35958-1.7872 0.85692-3.9786 1.1052-4.8699 0.34756-1.2477-0.50331-1.7485-3.6986-2.1771-2.5282-0.33911-5.205-1.5673-6.8495-3.1429l-2.6995-2.5862-2.2054 4.5393c-2.7699 5.7012-2.7764 6.6389-0.03905 5.6263 3.4946-1.2927 6.7972-0.11367 9.6317 3.4386 3.0492 3.8214 3.8476 3.6823 4.7552-0.8282zm40.291 87.136c-1.5773-7.6542-4.8062-14.53-8.7142-18.557l-3.9575-4.078 3.7376-9.5151 2.1402 3.4918c4.636 7.5637 8.7659 22.983 7.954 29.696-0.32835 2.7147-0.40005 2.6506-1.16-1.0373zm-92.514-0.82757c-5.8606-6.9649-8.4909-16.976-8.4506-32.164l0.02715-10.235 3.5246 3.7915c3.1858 3.4271 3.4518 4.1504 2.7673 7.5252-0.41653 2.0535-0.74174 7.5715-0.7227 12.262 0.02761 6.801 0.48544 9.3993 2.2602 12.827 2.5466 4.9187 4.2875 9.2469 3.7193 9.2469-0.21321 0-1.6195-1.464-3.1252-3.2534z" fill="#9d2636"/>
</svg>
