<?xml version="1.0" encoding="UTF-8"?>
<svg width="100" height="28" aria-label="DISCORD" role="img" version="1.1" xmlns="http://www.w3.org/2000/svg">
 <title>DISCORD</title>
 <g transform="scale(.95465 1)" fill="#f2f4f6" shape-rendering="crispEdges">
  <rect width="104.75" height="28" fill="#f2f4f6"/>
 </g>
 <g fill="#333" font-family="Verdana, Geneva, 'DejaVu Sans', sans-serif" font-size="100px" stroke="#333" text-anchor="middle" text-rendering="geometricPrecision">
  <text transform="scale(.1)" x="623.75" y="175" fill="#333333" font-weight="bold" stroke="none" textLength="607.5">DISCORD</text>
 </g>
 <path d="m21.129 9.4765c-0.9239-0.43228-1.9118-0.74643-2.9446-0.92535-0.12684 0.22933-0.27503 0.53778-0.3772 0.78312-1.0979-0.16511-2.1857-0.16511-3.2634 0-0.10215-0.24537-0.2537-0.55382-0.38168-0.78312-1.034 0.17889-2.023 0.4942-2.9469 0.92764-1.8636 2.8161-2.3687 5.5622-2.1161 8.2694 1.236 0.92301 2.4338 1.4837 3.6115 1.8506 0.29076-0.40017 0.55008-0.82555 0.77348-1.2739-0.42547-0.16167-0.83296-0.36118-1.218-0.59278 0.10215-0.07568 0.20207-0.1548 0.29861-0.23621 2.3485 1.0985 4.9002 1.0985 7.2207 0 0.09767 0.08141 0.19757 0.16053 0.29861 0.23621-0.38618 0.23275-0.79483 0.43226-1.2203 0.59395 0.2234 0.44717 0.4816 0.87372 0.77348 1.2739 1.1788-0.36691 2.3777-0.92758 3.6137-1.8518 0.29638-3.1383-0.5063-5.8592-2.1218-8.2717zm-7.325 6.6068c-0.70501 0-1.2832-0.65818-1.2832-1.4596 0-0.80146 0.56579-1.4608 1.2832-1.4608 0.71739 0 1.2955 0.65812 1.2832 1.4608 0.0011 0.80146-0.56579 1.4596-1.2832 1.4596zm4.7419 0c-0.70501 0-1.2832-0.65818-1.2832-1.4596 0-0.80146 0.56579-1.4608 1.2832-1.4608 0.71733 0 1.2955 0.65812 1.2832 1.4608 0 0.80146-0.56579 1.4596-1.2832 1.4596z" fill="#333" stroke-width=".055754"/>
</svg>
