<?xml version="1.0" encoding="UTF-8"?>
<svg width="87" height="20" aria-label="web: page" role="img" version="1.1" xmlns="http://www.w3.org/2000/svg">
 <title>WEBPAGE</title>
 <linearGradient id="s" x2="0" y2="100%">
  <stop stop-color="#bbb" stop-opacity=".1" offset="0"/>
  <stop stop-opacity=".1" offset="1"/>
 </linearGradient>
 <clipPath id="r">
  <rect width="87" height="20" rx="3" fill="#fff"/>
 </clipPath>
 <g clip-path="url(#r)">
  <rect width="50" height="20" fill="#555"/>
  <rect x="50" width="37" height="20" fill="#92403a"/>
  <rect width="87" height="20" fill="url(#s)"/>
 </g>
 <g font-family="Verdana,Geneva,DejaVu Sans,sans-serif" font-size="110" text-anchor="middle" text-rendering="geometricPrecision">
  <text transform="scale(.1)" x="345" y="150" fill="#010101" fill-opacity=".3" aria-hidden="true" textLength="230">web</text>
  <text transform="scale(.1)" x="345" y="140" fill="#fff" textLength="230">web</text>
  <text transform="scale(.1)" x="675" y="150" fill="#010101" fill-opacity=".3" aria-hidden="true" textLength="270">page</text>
  <text transform="scale(.1)" x="675" y="140" fill="#fff" textLength="270">page</text>
 </g>
 <path d="m11.402 12.224a0.6335 0.6335 0 0 0 0-0.89598 1.7799 1.7799 0 0 1 0-2.5172l2.1334-2.1328a1.7799 1.7799 0 1 1 2.5172 2.5172l-0.65945 0.65885a0.63356 0.63356 0 0 0 0.89598 0.89598l0.65945-0.65885a3.047 3.047 0 0 0-4.309-4.3091l-2.1334 2.1328a3.0469 3.0469 0 0 0 0 4.309c0.24737 0.24738 0.6486 0.24738 0.89598 0zm1.2368-3.0288a0.6335 0.6335 0 0 0 0 0.89598 1.7799 1.7799 0 0 1 0 2.5172l-2.1117 2.1117a1.7799 1.7799 0 1 1-2.5165-2.5172l0.61845-0.61845a0.63356 0.63356 0 0 0-0.89598-0.89598l-0.61785 0.61845a3.047 3.047 0 0 0 4.3091 4.309l2.1117-2.1117a3.0469 3.0469 0 0 0 0-4.3091 0.6335 0.6335 0 0 0-0.89598 0z" clip-rule="evenodd" fill="#fff" fill-rule="evenodd" stroke-width=".60335"/>
</svg>
