<?xml version="1.0" encoding="UTF-8"?>
<svg width="77" height="20" version="1.1" viewBox="0 0 20.373 5.2917" xmlns="http://www.w3.org/2000/svg">
 <title>website</title>
 <defs>
  <clipPath id="r">
   <rect width="85" height="20" rx="3" fill="#fff"/>
  </clipPath>
  <linearGradient id="s" x2="0" y2="41.231" gradientTransform="matrix(1.8675 0 0 .48507 8.0004 0)" gradientUnits="userSpaceOnUse">
   <stop stop-color="#bbb" stop-opacity=".1" offset="0"/>
   <stop stop-opacity=".1" offset="1"/>
  </linearGradient>
 </defs>
 <g transform="matrix(.26458 0 0 .26458 -2.1165 -.00417)" clip-path="url(#r)">
  <path d="m11.27 0h17.559c1.8118 0 3.2704 1.4586 3.2704 3.2704v13.459c0 1.8118-1.4586 3.2704-3.2704 3.2704h-17.559c-1.8118 0-3.2704-1.4586-3.2704-3.2704v-13.459c0-1.8118 1.4586-3.2704 3.2704-3.2704zm17.603 0h3.2266v5.2031h-3.2266zm0 14.797h3.2266v5.2031h-3.2266z" fill="#626262" stroke-width="0"/>
  <path transform="translate(8)" d="m11.536 12.437a0.64545 0.64545 0 0 0 0-0.91288 1.8135 1.8135 0 0 1 0-2.5647l2.1736-2.173a1.8135 1.8135 0 1 1 2.5647 2.5647l-0.67189 0.67128a0.64551 0.64551 0 0 0 0.91288 0.91288l0.67189-0.67128a3.1045 3.1045 0 0 0-4.3903-4.3904l-2.1736 2.173a3.1044 3.1044 0 0 0 0 4.3903c0.25204 0.25205 0.66084 0.25205 0.91288 0zm1.2601-3.0859a0.64545 0.64545 0 0 0 0 0.91288 1.8135 1.8135 0 0 1 0 2.5647l-2.1515 2.1515a1.8135 1.8135 0 1 1-2.564-2.5647l0.63012-0.63012a0.64551 0.64551 0 0 0-0.91288-0.91288l-0.6295 0.63012a3.1045 3.1045 0 0 0 4.3904 4.3903l2.1515-2.1515a3.1044 3.1044 0 0 0 0-4.3904 0.64545 0.64545 0 0 0-0.91288 0z" clip-rule="evenodd" fill="#fff" fill-rule="evenodd" stroke-width=".61473"/>
  <rect x="32" width="53" height="20" fill="#92403a"/>
  <rect x="8.0004" width="77" height="20" ry="3.1831" fill="url(#s)" stroke-width=".95178"/>
 </g>
 <g transform="matrix(.26458 0 0 .26458 -1.9758 .03076)" font-family="Verdana, Geneva, 'DejaVu Sans', sans-serif" font-size="110px" text-anchor="middle" text-rendering="geometricPrecision">
  <text transform="scale(.1)" x="575" y="150" fill="#010101" fill-opacity=".3" aria-hidden="true" textLength="430">website</text>
  <text transform="scale(.1)" x="575" y="140" fill="#ffffff" textLength="430">website</text>
 </g>
</svg>
