<?xml version="1.0" encoding="UTF-8"?>
<svg width="105" height="28" aria-label="WEBPAGE" role="img" version="1.1" xmlns="http://www.w3.org/2000/svg">
 <title>WEBPAGE</title>
 <g transform="scale(.97448)" fill="#f2f4f6" shape-rendering="crispEdges">
  <rect width="107.75" height="28" fill="#f2f4f6"/>
 </g>
 <g font-family="Verdana, Geneva, 'DejaVu Sans', sans-serif" font-size="100px" text-anchor="middle" text-rendering="geometricPrecision">
  <text transform="scale(.1)" x="638.75" y="175" fill="#333333" font-weight="bold" textLength="637.5">WEBPAGE</text>
  <path d="m14.501 15.952a0.81798 0.81798 0 0 0 0-1.1569 2.2982 2.2982 0 0 1 0-3.2502l2.7547-2.7539a2.2982 2.2982 0 1 1 3.2502 3.2502l-0.85149 0.85071a0.81806 0.81806 0 0 0 1.1569 1.1569l0.85149-0.85071a3.9343 3.9343 0 0 0-5.5639-5.5639l-2.7547 2.7539a3.9342 3.9342 0 0 0 0 5.5639c0.31941 0.31942 0.83748 0.31942 1.1569 0zm1.597-3.9108a0.81798 0.81798 0 0 0 0 1.1569 2.2982 2.2982 0 0 1 0 3.2502l-2.7267 2.7267a2.2982 2.2982 0 1 1-3.2494-3.2502l0.79855-0.79855a0.81806 0.81806 0 0 0-1.1569-1.1569l-0.79777 0.79855a3.9343 3.9343 0 0 0 5.5639 5.5639l2.7267-2.7267a3.9342 3.9342 0 0 0 0-5.5639 0.81798 0.81798 0 0 0-1.1569 0z" clip-rule="evenodd" fill="#333" fill-rule="evenodd" stroke-width=".77905"/>
 </g>
</svg>
